SplineFontDB: 3.0
FontName: Neocyr
FullName: Neocyr
FamilyName: Neocyr
Weight: Medium
Copyright: Typeface (c) Viktar Palstsiuk, 2002. All Rights Reserved.
Version: 1.00
ItalicAngle: 0
UnderlinePosition: -140
UnderlineWidth: 48
Ascent: 1638
Descent: 410
sfntRevision: 0x00010000
LayerCount: 2
Layer: 0 1 "Back"  1
Layer: 1 1 "Fore"  0
NeedsXUIDChange: 1
XUID: [1021 911 956832224 6827409]
FSType: 8
OS2Version: 1
OS2_WeightWidthSlopeOnly: 0
OS2_UseTypoMetrics: 1
CreationTime: 1034186044
ModificationTime: 1299405780
PfmFamily: 81
TTFWeight: 400
TTFWidth: 5
LineGap: 67
VLineGap: 0
Panose: 4 1 7 0 6 0 0 0 0 0
OS2TypoAscent: -147
OS2TypoAOffset: 1
OS2TypoDescent: -21
OS2TypoDOffset: 1
OS2TypoLinegap: 307
OS2WinAscent: 74
OS2WinAOffset: 1
OS2WinDescent: -6
OS2WinDOffset: 1
HheadAscent: 70
HheadAOffset: 1
HheadDescent: -10
HheadDOffset: 1
OS2SubXSize: 1434
OS2SubYSize: 1331
OS2SubXOff: 0
OS2SubYOff: 283
OS2SupXSize: 1434
OS2SupYSize: 1331
OS2SupXOff: 0
OS2SupYOff: 977
OS2StrikeYSize: 102
OS2StrikeYPos: 530
OS2FamilyClass: 2048
OS2Vendor: '    '
OS2CodePages: 00000004.00000000
OS2UnicodeRanges: 00000000.00000000.00000000.00000000
Lookup: 258 0 0 "'kern' Horizontal Kerning in Cyrillic lookup 0"  {"'kern' Horizontal Kerning in Cyrillic lookup 0 subtable"  } ['kern' ('cyrl' <'dflt' > ) ]
MarkAttachClasses: 1
DEI: 91125
ShortTable: maxp 16
  1
  0
  152
  75
  5
  50
  4
  2
  8
  64
  10
  0
  82
  190
  2
  2
EndShort

StartChar: .notdef
Encoding: 65536 -1 0
Width: 1200
Flags: W
LayerCount: 2
Fore
SplineSet
0 0 m 1,0,-1
 0 1500 l 1,1,-1
 1000 1500 l 1,2,-1
 1000 0 l 1,3,-1
 0 0 l 1,0,-1
190 70 m 1,4,-1
 810 70 l 1,5,-1
 810 1430 l 1,6,-1
 190 1430 l 1,7,-1
 190 70 l 1,4,-1
EndSplineSet
Validated: 1
EndChar

StartChar: exclam
Encoding: 33 33 3
Width: 391
Flags: W
LayerCount: 2
Fore
SplineSet
0 1500 m 1,0,-1
 190 1500 l 1,1,-1
 190 344 l 1,2,-1
 0 344 l 1,3,-1
 0 1500 l 1,0,-1
-1 94 m 0,4,5
 -1 56 -1 56 28.5 28 c 128,-1,6
 58 0 58 0 98 0 c 0,7,8
 135 0 135 0 162 26.5 c 128,-1,9
 189 53 189 53 189 94 c 0,10,11
 189 134 189 134 161.5 162 c 128,-1,12
 134 190 134 190 94 190 c 0,13,14
 55 190 55 190 27 162 c 128,-1,15
 -1 134 -1 134 -1 94 c 0,4,5
EndSplineSet
Validated: 9
EndChar

StartChar: quotedbl
Encoding: 34 34 4
Width: 678
Flags: W
LayerCount: 2
Fore
SplineSet
201 905 m 1,0,-1
 153 1255 l 2,1,2
 150 1281 150 1281 150 1310 c 0,3,4
 150 1366 150 1366 171.5 1392.5 c 128,-1,5
 193 1419 193 1419 229 1419 c 0,6,7
 262 1419 262 1419 282.5 1395 c 128,-1,8
 303 1371 303 1371 303 1324 c 0,9,10
 303 1297 303 1297 296 1258 c 1,11,-1
 242 905 l 1,12,-1
 201 905 l 1,0,-1
526 905 m 1,13,-1
 479 1255 l 2,14,15
 475 1281 475 1281 475 1309 c 0,16,17
 475 1366 475 1366 496.5 1392.5 c 128,-1,18
 518 1419 518 1419 554 1419 c 0,19,20
 588 1419 588 1419 608 1395 c 128,-1,21
 628 1371 628 1371 628 1326 c 0,22,23
 628 1298 628 1298 622 1258 c 2,24,-1
 567 905 l 1,25,-1
 526 905 l 1,13,-1
EndSplineSet
Validated: 1
EndChar

StartChar: numbersign
Encoding: 35 35 5
Width: 1197
Flags: W
LayerCount: 2
Fore
SplineSet
1061 559 m 1,0,-1
 1061 442 l 1,1,-1
 842 442 l 1,2,-1
 777 -1 l 1,3,-1
 658 -1 l 1,4,-1
 723 442 l 1,5,-1
 450 442 l 1,6,-1
 388 -1 l 1,7,-1
 266 -1 l 1,8,-1
 333 442 l 1,9,-1
 115 442 l 1,10,-1
 115 559 l 1,11,-1
 351 559 l 1,12,-1
 388 830 l 1,13,-1
 171 830 l 1,14,-1
 171 946 l 1,15,-1
 410 946 l 1,16,-1
 472 1363 l 1,17,-1
 587 1363 l 1,18,-1
 526 946 l 1,19,-1
 798 946 l 1,20,-1
 859 1363 l 1,21,-1
 977 1363 l 1,22,-1
 916 946 l 1,23,-1
 1112 946 l 1,24,-1
 1112 829 l 1,25,-1
 899 829 l 1,26,-1
 859 559 l 1,27,-1
 1061 559 l 1,0,-1
781 829 m 1,28,-1
 508 829 l 1,29,-1
 468 559 l 1,30,-1
 739 559 l 1,31,-1
 781 829 l 1,28,-1
EndSplineSet
Validated: 1
EndChar

StartChar: dollar
Encoding: 36 36 6
Width: 940
Flags: W
LayerCount: 2
Fore
SplineSet
352 1500 m 256,0,1
 392 1500 392 1500 422 1471 c 128,-1,2
 452 1442 452 1442 452 1401 c 0,3,4
 452 1359 452 1359 422 1329.5 c 128,-1,5
 392 1300 392 1300 352 1300 c 0,6,7
 310 1300 310 1300 281 1329 c 128,-1,8
 252 1358 252 1358 252 1399 c 256,9,10
 252 1440 252 1440 282 1470 c 128,-1,11
 312 1500 312 1500 352 1500 c 256,0,1
352 200 m 256,12,13
 394 200 394 200 423 171 c 128,-1,14
 452 142 452 142 452 100 c 256,15,16
 452 58 452 58 422 29 c 128,-1,17
 392 0 392 0 352 0 c 0,18,19
 310 0 310 0 281 29 c 128,-1,20
 252 58 252 58 252 100 c 256,21,22
 252 142 252 142 281 171 c 128,-1,23
 310 200 310 200 352 200 c 256,12,13
598 1250 m 1,24,-1
 598 1050 l 1,25,26
 432 1170 432 1170 326.5 1155 c 128,-1,27
 221 1140 221 1140 192 1030 c 1,28,29
 202 861 202 861 473.5 793 c 128,-1,30
 745 725 745 725 749 517 c 1,31,32
 739 314 739 314 505.5 253.5 c 128,-1,33
 272 193 272 193 -2 250 c 1,34,-1
 -2 450 l 1,35,36
 243 296 243 296 393 324.5 c 128,-1,37
 543 353 543 353 550 500 c 1,38,39
 550 711 550 711 283 765.5 c 128,-1,40
 16 820 16 820 4 998 c 1,41,42
 4 1147 4 1147 141 1210 c 128,-1,43
 278 1273 278 1273 598 1250 c 1,24,-1
EndSplineSet
Validated: 33
EndChar

StartChar: percent
Encoding: 37 37 7
Width: 1655
Flags: W
LayerCount: 2
Fore
SplineSet
648 1497 m 1,0,-1
 148 0 l 1,1,-1
 0 0 l 1,2,-1
 497 1497 l 1,3,-1
 648 1497 l 1,0,-1
-12 1126 m 1,4,5
 -14 1000 -14 1000 -35.5 895 c 128,-1,6
 -57 790 -57 790 -130 786 c 1,7,8
 -205 791 -205 791 -229.5 892 c 128,-1,9
 -254 993 -254 993 -256 1126 c 0,10,11
 -258 1242 -258 1242 -231.5 1350 c 128,-1,12
 -205 1458 -205 1458 -130 1466 c 1,13,14
 -59 1459 -59 1459 -35.5 1351.5 c 128,-1,15
 -12 1244 -12 1244 -12 1126 c 1,4,5
-325.5 1388 m 128,-1,17
 -407 1272 -407 1272 -405 1126 c 1,18,19
 -410 980 -410 980 -328 864 c 128,-1,20
 -246 748 -246 748 -130 750 c 1,21,22
 -12 748 -12 748 67 870 c 128,-1,23
 146 992 146 992 145 1126 c 1,24,25
 146 1273 146 1273 64 1388 c 128,-1,26
 -18 1503 -18 1503 -130 1500 c 1,27,16
 -244 1504 -244 1504 -325.5 1388 c 128,-1,17
908 377 m 1,28,29
 906 251 906 251 884.5 146.5 c 128,-1,30
 863 42 863 42 790 36 c 1,31,32
 715 42 715 42 690.5 143 c 128,-1,33
 666 244 666 244 664 377 c 0,34,35
 662 493 662 493 688.5 601.5 c 128,-1,36
 715 710 715 710 790 716 c 1,37,38
 861 710 861 710 884.5 603 c 128,-1,39
 908 496 908 496 908 377 c 1,28,29
594.5 639 m 128,-1,41
 513 522 513 522 515 377 c 1,42,43
 510 231 510 231 592 115 c 128,-1,44
 674 -1 674 -1 790 2 c 1,45,46
 908 -2 908 -2 987 120 c 128,-1,47
 1066 242 1066 242 1065 377 c 1,48,49
 1066 524 1066 524 984 639 c 128,-1,50
 902 754 902 754 790 751 c 1,51,40
 676 756 676 756 594.5 639 c 128,-1,41
EndSplineSet
Validated: 41
EndChar

StartChar: ampersand
Encoding: 38 38 8
Width: 1415
Flags: W
LayerCount: 2
Fore
SplineSet
1254 -419 m 1,1,-1
 1222 -438 l 1,2,3
 1030 -258 1030 -258 904 -14 c 1,4,5
 473 -52 473 -52 255.5 52 c 128,-1,6
 38 156 38 156 -1 419 c 1,7,8
 -7 710 -7 710 425 992 c 1,9,-1
 50 1500 l 1,10,-1
 946 1500 l 1,11,-1
 946 1300 l 1,12,13
 697 1436 697 1436 320 1430 c 1,14,-1
 654 1004 l 1,15,16
 258 792 258 792 220 535.5 c 128,-1,17
 182 279 182 279 350.5 125.5 c 128,-1,18
 519 -28 519 -28 868 112 c 1,19,20
 836 306 836 306 830 570 c 1,21,22
 720 570 720 570 630 440 c 1,23,-1
 630 640 l 1,24,-1
 1220 640 l 1,25,-1
 1220 440 l 1,26,27
 1130 570 1130 570 1020 570 c 1,28,29
 1005 236 1005 236 1057 10.5 c 128,-1,0
 1109 -215 1109 -215 1254 -419 c 1,1,-1
EndSplineSet
Validated: 33
EndChar

StartChar: quotesingle
Encoding: 39 39 9
Width: 353
Flags: W
LayerCount: 2
Fore
SplineSet
200 905 m 1,0,-1
 152 1255 l 2,1,2
 149 1281 149 1281 149 1310 c 0,3,4
 149 1366 149 1366 170.5 1392.5 c 128,-1,5
 192 1419 192 1419 228 1419 c 0,6,7
 261 1419 261 1419 281.5 1395 c 128,-1,8
 302 1371 302 1371 302 1324 c 0,9,10
 302 1297 302 1297 295 1258 c 1,11,-1
 241 905 l 1,12,-1
 200 905 l 1,0,-1
EndSplineSet
Validated: 1
EndChar

StartChar: parenleft
Encoding: 40 40 10
Width: 536
Flags: W
LayerCount: 2
Fore
SplineSet
313 1500 m 1,0,-1
 336 1438 l 1,1,2
 282 1381 282 1381 246 1298 c 0,3,4
 193 1173 193 1173 171.5 1004.5 c 128,-1,5
 150 836 150 836 150 529 c 0,6,7
 150 213 150 213 170 55 c 128,-1,8
 190 -103 190 -103 246 -226 c 1,9,10
 279 -312 279 -312 336 -373 c 1,11,-1
 313 -430 l 1,12,13
 216 -344 216 -344 143.5 -213 c 128,-1,14
 71 -82 71 -82 15.5 89.5 c 128,-1,15
 -40 261 -40 261 -40 549 c 0,16,17
 -40 836 -40 836 19.5 1008.5 c 128,-1,18
 79 1181 79 1181 168 1331 c 0,19,20
 235 1444 235 1444 313 1500 c 1,0,-1
EndSplineSet
Validated: 1
EndChar

StartChar: parenright
Encoding: 41 41 11
Width: 536
Flags: W
LayerCount: 2
Fore
SplineSet
23 1500 m 1,0,-1
 0 1438 l 1,1,2
 54 1381 54 1381 90 1298 c 0,3,4
 143 1173 143 1173 164.5 1004.5 c 128,-1,5
 186 836 186 836 186 529 c 0,6,7
 186 213 186 213 166 55 c 128,-1,8
 146 -103 146 -103 90 -226 c 1,9,10
 57 -312 57 -312 0 -373 c 1,11,-1
 23 -430 l 1,12,13
 120 -344 120 -344 192.5 -213 c 128,-1,14
 265 -82 265 -82 320.5 89.5 c 128,-1,15
 376 261 376 261 376 549 c 0,16,17
 376 836 376 836 316.5 1008.5 c 128,-1,18
 257 1181 257 1181 168 1331 c 0,19,20
 101 1444 101 1444 23 1500 c 1,0,-1
EndSplineSet
Validated: 9
EndChar

StartChar: asterisk
Encoding: 42 42 12
Width: 929
Flags: W
LayerCount: 2
Fore
SplineSet
428 1116 m 1,0,-1
 385 1269 l 2,1,2
 376 1298 376 1298 376 1327 c 0,3,4
 376 1372 376 1372 396.5 1395.5 c 128,-1,5
 417 1419 417 1419 451 1419 c 256,6,7
 485 1419 485 1419 501 1398 c 0,8,9
 524 1369 524 1369 524 1323 c 0,10,11
 524 1299 524 1299 516 1269 c 2,12,-1
 476 1116 l 1,13,-1
 516 1086 l 1,14,-1
 645 1176 l 1,15,16
 693 1211 693 1211 734 1211 c 0,17,18
 773 1211 773 1211 794 1189 c 128,-1,19
 815 1167 815 1167 815 1130 c 0,20,21
 815 1097 815 1097 780 1070.5 c 128,-1,22
 745 1044 745 1044 690 1044 c 2,23,-1
 531 1044 l 1,24,-1
 516 992 l 1,25,-1
 645 895 l 2,26,27
 707 848 707 848 707 788 c 0,28,29
 707 762 707 762 682.5 739.5 c 128,-1,30
 658 717 658 717 628 717 c 0,31,32
 610 717 610 717 580 738.5 c 128,-1,33
 550 760 550 760 531 813 c 2,34,-1
 476 965 l 1,35,-1
 428 965 l 1,36,-1
 373 813 l 2,37,38
 355 764 355 764 327.5 739.5 c 128,-1,39
 300 715 300 715 276 715 c 0,40,41
 246 715 246 715 221.5 738.5 c 128,-1,42
 197 762 197 762 197 785 c 0,43,44
 197 844 197 844 261 895 c 2,45,-1
 385 992 l 1,46,-1
 373 1044 l 1,47,-1
 212 1044 l 2,48,49
 155 1044 155 1044 120.5 1069.5 c 128,-1,50
 86 1095 86 1095 86 1128 c 0,51,52
 86 1162 86 1162 106.5 1184.5 c 128,-1,53
 127 1207 127 1207 158 1207 c 0,54,55
 211 1207 211 1207 254 1176 c 1,56,-1
 385 1086 l 1,57,-1
 428 1116 l 1,0,-1
EndSplineSet
Validated: 1
EndChar

StartChar: plus
Encoding: 43 43 13
Width: 1175
Flags: W
LayerCount: 2
Fore
SplineSet
1102 730 m 1,0,-1
 1102 660 l 1,1,-1
 696 660 l 1,2,-1
 696 210 l 1,3,-1
 533 210 l 1,4,-1
 533 660 l 1,5,-1
 127 660 l 1,6,-1
 127 730 l 1,7,-1
 533 730 l 1,8,-1
 533 1185 l 1,9,-1
 696 1185 l 1,10,-1
 696 730 l 1,11,-1
 1102 730 l 1,0,-1
EndSplineSet
Validated: 1
EndChar

StartChar: comma
Encoding: 44 44 14
Width: 455
Flags: W
LayerCount: 2
Fore
SplineSet
76 -258 m 1,0,-1
 30 -258 l 1,1,2
 154 -113 154 -113 154 -15 c 0,3,4
 154 -3 154 -3 152 14 c 1,5,6
 137 7 137 7 122.5 3.5 c 128,-1,7
 108 0 108 0 95 0 c 0,8,9
 52 0 52 0 26 27.5 c 128,-1,10
 0 55 0 55 0 97 c 0,11,12
 0 138 0 138 31.5 169 c 128,-1,13
 63 200 63 200 107 200 c 0,14,15
 168 200 168 200 211.5 152 c 128,-1,16
 255 104 255 104 255 29 c 0,17,18
 255 -21 255 -21 234.5 -75 c 128,-1,19
 214 -129 214 -129 174.5 -175 c 128,-1,20
 135 -221 135 -221 76 -258 c 1,0,-1
EndSplineSet
Validated: 1
EndChar

StartChar: hyphen
Encoding: 45 45 15
AltUni2: 002010.ffffffff.0 000096.ffffffff.0 002010.ffffffff.0 000096.ffffffff.0 000096.ffffffff.0 002010.ffffffff.0 000096.ffffffff.0 002010.ffffffff.0
Width: 794
Flags: W
LayerCount: 2
Fore
SplineSet
112 544 m 1,0,-1
 706 544 l 1,1,-1
 706 474 l 1,2,-1
 112 474 l 1,3,-1
 112 544 l 1,0,-1
EndSplineSet
Validated: 1
EndChar

StartChar: minus
Encoding: 8211 8211 16
AltUni2: 002212.ffffffff.0 002212.ffffffff.0 002212.ffffffff.0 002212.ffffffff.0
Width: 1175
Flags: W
LayerCount: 2
Fore
SplineSet
1102 730 m 1,0,-1
 1102 660 l 1,1,-1
 127 660 l 1,2,-1
 127 730 l 1,3,-1
 1102 730 l 1,0,-1
EndSplineSet
Validated: 1
EndChar

StartChar: period
Encoding: 46 46 17
Width: 400
Flags: W
LayerCount: 2
Fore
SplineSet
100 201 m 0,0,1
 142 201 142 201 171 172 c 128,-1,2
 200 143 200 143 200 101 c 256,3,4
 200 59 200 59 170.5 30 c 128,-1,5
 141 1 141 1 100 1 c 256,6,7
 59 1 59 1 29.5 30 c 128,-1,8
 0 59 0 59 0 101 c 256,9,10
 0 143 0 143 29.5 172 c 128,-1,11
 59 201 59 201 100 201 c 0,0,1
EndSplineSet
Validated: 1
EndChar

StartChar: slash
Encoding: 47 47 18
Width: 808
Flags: W
LayerCount: 2
Fore
SplineSet
648 1497 m 1,0,-1
 148 -401 l 1,1,-1
 0 -401 l 1,2,-1
 497 1497 l 1,3,-1
 648 1497 l 1,0,-1
EndSplineSet
Validated: 1
EndChar

StartChar: one
Encoding: 49 49 20
Width: 450
Flags: W
LayerCount: 2
Fore
SplineSet
-100 1325 m 1,0,-1
 190 1500 l 1,1,-1
 190 0 l 1,2,-1
 0 0 l 1,3,-1
 0 1300 l 1,4,-1
 -100 1234 l 1,5,-1
 -100 1325 l 1,0,-1
EndSplineSet
Validated: 1
EndChar

StartChar: two
Encoding: 50 50 21
Width: 1196
Flags: W
LayerCount: 2
Fore
SplineSet
4 0 m 1,0,1
 5 244 5 244 392 496 c 1,2,3
 758 708 758 708 796 964.5 c 128,-1,4
 834 1221 834 1221 647.5 1364.5 c 128,-1,5
 461 1508 461 1508 118 1263 c 1,6,-1
 87 1315 l 1,7,8
 406 1570 406 1570 680 1466 c 128,-1,9
 954 1362 954 1362 997 1081 c 1,10,11
 1003 790 1003 790 800.5 656 c 128,-1,12
 598 522 598 522 405 374 c 128,-1,13
 212 226 212 226 200 70 c 1,14,15
 664 68 664 68 1000 204 c 1,16,-1
 1000 0 l 1,17,-1
 4 0 l 1,0,1
EndSplineSet
Validated: 33
EndChar

StartChar: five
Encoding: 53 53 24
Width: 1197
Flags: W
LayerCount: 2
Fore
SplineSet
50 1500 m 1,0,-1
 50 1001 l 1,1,2
 392 1004 392 1004 587.5 862 c 128,-1,3
 783 720 783 720 797 457.5 c 128,-1,4
 811 195 811 195 583 82.5 c 128,-1,5
 355 -30 355 -30 0 200 c 1,6,-1
 0 0 l 1,7,8
 545 -101 545 -101 751.5 27.5 c 128,-1,9
 958 156 958 156 997 419 c 1,10,11
 1003 710 1003 710 762.5 880 c 128,-1,12
 522 1050 522 1050 240 1080 c 1,13,-1
 240 1430 l 1,14,15
 655 1430 655 1430 900 1300 c 1,16,-1
 900 1500 l 1,17,-1
 50 1500 l 1,0,-1
EndSplineSet
Validated: 41
EndChar

StartChar: six
Encoding: 54 54 25
Width: 1202
Flags: W
LayerCount: 2
Fore
SplineSet
163 1290 m 128,-1,1
 38 1115 38 1115 0 667 c 1,2,3
 9 2 9 2 500 -1 c 0,4,5
 933 -3 933 -3 1002 483 c 1,6,7
 945 970 945 970 500 1000 c 1,8,9
 307 988 307 988 190 851 c 1,10,11
 222 1265 222 1265 407.5 1376 c 128,-1,12
 593 1487 593 1487 821 1327 c 1,13,-1
 844 1362 l 1,14,15
 748 1482 748 1482 500 1499 c 1,16,0
 288 1465 288 1465 163 1290 c 128,-1,1
800 467 m 1,18,19
 748 75 748 75 500 70 c 1,20,21
 286 58 286 58 200 460 c 1,22,23
 195 867 195 867 500 930 c 1,24,17
 809 898 809 898 800 467 c 1,18,19
EndSplineSet
Validated: 41
EndChar

StartChar: seven
Encoding: 55 55 26
Width: 1104
Flags: W
LayerCount: 2
Fore
SplineSet
424 0 m 1,0,-1
 234 0 l 1,1,-1
 694 1430 l 1,2,3
 251 1435 251 1435 0 1301 c 1,4,-1
 0 1500 l 1,5,-1
 904 1499 l 1,6,-1
 424 0 l 1,0,-1
EndSplineSet
Validated: 33
EndChar

StartChar: eight
Encoding: 56 56 27
Width: 1200
Flags: W
LayerCount: 2
Fore
SplineSet
700 1158 m 1,1,2
 694 1422 694 1422 500 1440 c 1,3,4
 316 1422 316 1422 310 1168 c 1,5,6
 297 972 297 972 500 910 c 1,7,0
 693 963 693 963 700 1158 c 1,1,2
210 400 m 1,9,10
 269 70 269 70 500 70 c 0,11,12
 741 70 741 70 800 400 c 1,13,14
 815 755 815 755 500 827 c 1,15,8
 213 755 213 755 210 400 c 1,9,10
0 400 m 1,17,18
 39 768 39 768 382 866 c 1,19,20
 146 924 146 924 100 1131 c 1,21,22
 100 1314 100 1314 221 1407 c 128,-1,23
 342 1500 342 1500 500 1500 c 256,24,25
 658 1500 658 1500 778.5 1406 c 128,-1,26
 899 1312 899 1312 900 1131 c 1,27,28
 858 928 858 928 618 866 c 1,29,30
 970 786 970 786 1000 400 c 1,31,32
 982 0 982 0 500 0 c 0,33,16
 20 0 20 0 0 400 c 1,17,18
EndSplineSet
Validated: 33
EndChar

StartChar: nine
Encoding: 57 57 28
Width: 1202
Flags: W
LayerCount: 2
Fore
SplineSet
789.5 191.5 m 128,-1,1
 972 415 972 415 1001 832 c 1,2,3
 992 1497 992 1497 500 1500 c 1,4,5
 64 1462 64 1462 -1 1065 c 1,6,7
 12 583 12 583 500 579 c 1,8,9
 694 591 694 591 801 688 c 1,10,11
 738 247 738 247 571 136 c 128,-1,12
 404 25 404 25 200 150 c 1,13,-1
 200 0 l 1,14,0
 607 -32 607 -32 789.5 191.5 c 128,-1,1
200 1060 m 1,16,17
 221 1363 221 1363 500 1430 c 1,18,19
 756 1411 756 1411 790 1060 c 1,20,21
 799 664 799 664 500 650 c 1,22,15
 191 682 191 682 200 1060 c 1,16,17
EndSplineSet
Validated: 41
EndChar

StartChar: colon
Encoding: 58 58 29
Width: 400
Flags: W
LayerCount: 2
Fore
SplineSet
100 1000 m 0,0,1
 141 1000 141 1000 170.5 971 c 128,-1,2
 200 942 200 942 200 901 c 0,3,4
 200 859 200 859 170.5 829.5 c 128,-1,5
 141 800 141 800 100 800 c 256,6,7
 59 800 59 800 29.5 829 c 128,-1,8
 0 858 0 858 0 899 c 256,9,10
 0 940 0 940 30.5 970 c 128,-1,11
 61 1000 61 1000 100 1000 c 0,0,1
100 201 m 0,12,13
 142 201 142 201 171 172 c 128,-1,14
 200 143 200 143 200 101 c 256,15,16
 200 59 200 59 170.5 30 c 128,-1,17
 141 1 141 1 100 1 c 256,18,19
 59 1 59 1 29.5 30 c 128,-1,20
 0 59 0 59 0 101 c 256,21,22
 0 143 0 143 29.5 172 c 128,-1,23
 59 201 59 201 100 201 c 0,12,13
EndSplineSet
Validated: 1
EndChar

StartChar: semicolon
Encoding: 59 59 30
Width: 455
Flags: W
LayerCount: 2
Fore
SplineSet
103 1000 m 0,0,1
 144 1000 144 1000 173 971 c 128,-1,2
 202 942 202 942 202 901 c 0,3,4
 202 859 202 859 173 829.5 c 128,-1,5
 144 800 144 800 103 800 c 0,6,7
 61 800 61 800 31.5 829 c 128,-1,8
 2 858 2 858 2 899 c 256,9,10
 2 940 2 940 33 970 c 128,-1,11
 64 1000 64 1000 103 1000 c 0,0,1
76 -258 m 1,12,-1
 30 -258 l 1,13,14
 154 -113 154 -113 154 -15 c 0,15,16
 154 -3 154 -3 152 14 c 1,17,18
 137 7 137 7 122.5 3.5 c 128,-1,19
 108 0 108 0 95 0 c 0,20,21
 52 0 52 0 26 27.5 c 128,-1,22
 0 55 0 55 0 97 c 0,23,24
 0 138 0 138 31.5 169 c 128,-1,25
 63 200 63 200 107 200 c 0,26,27
 168 200 168 200 211.5 152 c 128,-1,28
 255 104 255 104 255 29 c 0,29,30
 255 -21 255 -21 234.5 -75 c 128,-1,31
 214 -129 214 -129 174.5 -175 c 128,-1,32
 135 -221 135 -221 76 -258 c 1,12,-1
EndSplineSet
Validated: 1
EndChar

StartChar: less
Encoding: 60 60 31
Width: 1101
Flags: W
LayerCount: 2
Fore
SplineSet
901 181 m 1,0,-1
 0 581 l 1,1,-1
 0 681 l 1,2,-1
 901 1082 l 1,3,-1
 901 938 l 1,4,-1
 153 601 l 1,5,-1
 901 264 l 1,6,-1
 901 181 l 1,0,-1
EndSplineSet
Validated: 1
EndChar

StartChar: equal
Encoding: 61 61 32
Width: 1175
Flags: W
LayerCount: 2
Fore
SplineSet
975 889 m 1,0,-1
 975 819 l 1,1,-1
 0 819 l 1,2,-1
 0 889 l 1,3,-1
 975 889 l 1,0,-1
975 575 m 1,4,-1
 975 505 l 1,5,-1
 0 505 l 1,6,-1
 0 575 l 1,7,-1
 975 575 l 1,4,-1
EndSplineSet
Validated: 1
EndChar

StartChar: greater
Encoding: 62 62 33
Width: 1101
Flags: W
LayerCount: 2
Fore
SplineSet
-1 1081 m 1,0,-1
 900 681 l 1,1,-1
 900 541 l 1,2,-1
 -1 140 l 1,3,-1
 -1 324 l 1,4,-1
 747 661 l 1,5,-1
 -1 998 l 1,6,-1
 -1 1081 l 1,0,-1
EndSplineSet
Validated: 1
EndChar

StartChar: question
Encoding: 63 63 34
Width: 1050
Flags: W
LayerCount: 2
Fore
SplineSet
0 1330 m 1,0,-1
 22 1296 l 1,1,2
 278 1466 278 1466 450 1427 c 128,-1,3
 622 1388 622 1388 650 1168 c 1,4,5
 658 912 658 912 465.5 760.5 c 128,-1,6
 273 609 273 609 280 350 c 1,7,-1
 470 350 l 1,8,9
 465 648 465 648 653 790.5 c 128,-1,10
 841 933 841 933 850 1141 c 1,11,12
 807 1407 807 1407 537.5 1478.5 c 128,-1,13
 268 1550 268 1550 0 1330 c 1,0,-1
280 100 m 0,14,15
 280 140 280 140 311.5 170 c 128,-1,16
 343 200 343 200 384 200 c 0,17,18
 424 200 424 200 452 172 c 128,-1,19
 480 144 480 144 480 101 c 256,20,21
 480 58 480 58 450.5 29 c 128,-1,22
 421 0 421 0 380 0 c 0,23,24
 340 0 340 0 310 29.5 c 128,-1,25
 280 59 280 59 280 100 c 0,14,15
EndSplineSet
Validated: 41
EndChar

StartChar: at
Encoding: 64 64 35
Width: 1244
Flags: W
LayerCount: 2
Fore
SplineSet
650 62 m 1,0,1
 202 -38 202 -38 200 256 c 1,2,3
 205 431 205 431 351.5 481 c 128,-1,4
 498 531 498 531 650 596 c 1,5,-1
 650 62 l 1,0,1
296.5 959 m 128,-1,7
 196 909 196 909 143 838 c 1,8,-1
 172 797 l 1,9,10
 306 943 306 943 448.5 944 c 128,-1,11
 591 945 591 945 635.5 819 c 128,-1,12
 680 693 680 693 566 635.5 c 128,-1,13
 452 578 452 578 228.5 513.5 c 128,-1,14
 5 449 5 449 0 251 c 1,15,16
 27 -16 27 -16 289.5 -16 c 128,-1,17
 552 -16 552 -16 730 0 c 1,18,19
 845 -261 845 -261 1052 -438 c 1,20,-1
 1084 -419 l 1,21,22
 933 -235 933 -235 877 62 c 1,23,24
 835 236 835 236 850 930 c 1,25,26
 966 941 966 941 1050 800 c 1,27,-1
 1050 1000 l 1,28,-1
 850 1000 l 1,29,-1
 850 1500 l 1,30,-1
 660 1500 l 1,31,-1
 660 1000 l 1,32,6
 397 1009 397 1009 296.5 959 c 128,-1,7
EndSplineSet
Validated: 41
EndChar

StartChar: A
Encoding: 65 65 36
AltUni2: 000410.ffffffff.0 000410.ffffffff.0 000410.ffffffff.0 000410.ffffffff.0
Width: 1200
Flags: W
LayerCount: 2
Fore
SplineSet
571 1500 m 1,0,-1
 1000 0 l 1,1,-1
 810 0 l 1,2,-1
 670 500 l 1,3,-1
 217 500 l 1,4,5
 174 190 174 190 200 0 c 1,6,-1
 0 0 l 1,7,-1
 422 1500 l 1,8,-1
 571 1500 l 1,0,-1
438 1301 m 1,9,-1
 243 570 l 1,10,-1
 646 570 l 1,11,-1
 438 1301 l 1,9,-1
EndSplineSet
Validated: 33
EndChar

StartChar: B
Encoding: 66 66 37
AltUni2: 000412.ffffffff.0 000412.ffffffff.0 000412.ffffffff.0 000412.ffffffff.0
Width: 1197
Flags: W
LayerCount: 2
Fore
SplineSet
0 1501 m 1,0,-1
 0 -1 l 1,1,2
 947 -142 947 -142 997 361 c 1,3,4
 972 754 972 754 496 882 c 1,5,6
 683 1057 683 1057 643 1238.5 c 128,-1,7
 603 1420 603 1420 429.5 1485.5 c 128,-1,8
 256 1551 256 1551 0 1501 c 1,0,-1
384 908.5 m 128,-1,10
 301 774 301 774 190 673 c 1,11,-1
 190 1443 l 1,12,13
 275 1472 275 1472 365 1419.5 c 128,-1,14
 455 1367 455 1367 461 1205 c 128,-1,9
 467 1043 467 1043 384 908.5 c 128,-1,10
442 832 m 1,16,17
 786 705 786 705 803 352 c 1,18,19
 772 91 772 91 569.5 50.5 c 128,-1,20
 367 10 367 10 190 68 c 1,21,-1
 190 509 l 2,22,15
 190 591 190 591 442 832 c 1,16,17
EndSplineSet
Validated: 41
EndChar

StartChar: C
Encoding: 67 67 38
AltUni2: 000421.ffffffff.0 000421.ffffffff.0 000421.ffffffff.0 000421.ffffffff.0
Width: 1200
Flags: W
LayerCount: 2
Fore
SplineSet
0 600 m 1,1,2
 16 278 16 278 273 100 c 128,-1,3
 530 -78 530 -78 1000 0 c 1,4,-1
 1000 200 l 1,5,6
 731 -33 731 -33 473 108.5 c 128,-1,7
 215 250 215 250 200 600 c 1,8,9
 198 1069 198 1069 474.5 1265.5 c 128,-1,10
 751 1462 751 1462 1000 1300 c 1,11,-1
 1000 1500 l 1,12,13
 583 1501 583 1501 291 1236.5 c 128,-1,0
 -1 972 -1 972 0 600 c 1,1,2
EndSplineSet
Validated: 41
EndChar

StartChar: D
Encoding: 68 68 39
AltUni2: 000414.ffffffff.0 000414.ffffffff.0 000414.ffffffff.0 000414.ffffffff.0
Width: 1204
Flags: W
LayerCount: 2
Fore
SplineSet
0 0 m 1,0,1
 519 -41 519 -41 743 88.5 c 128,-1,2
 967 218 967 218 1001 510 c 1,3,4
 1035 893 1035 893 750 1207 c 128,-1,5
 465 1521 465 1521 0 1500 c 1,6,-1
 0 0 l 1,0,1
804 574 m 1,8,9
 796 272 796 272 599 152 c 128,-1,10
 402 32 402 32 190 72 c 1,11,-1
 190 1427 l 1,12,13
 493 1370 493 1370 655 1136 c 128,-1,7
 817 902 817 902 804 574 c 1,8,9
EndSplineSet
Validated: 41
EndChar

StartChar: E
Encoding: 69 69 40
AltUni2: 000415.ffffffff.0 000415.ffffffff.0 000415.ffffffff.0 000415.ffffffff.0
Width: 1200
Flags: W
LayerCount: 2
Fore
SplineSet
0 0 m 1,0,-1
 1000 0 l 1,1,-1
 1000 206 l 1,2,3
 666 62 666 62 190 70 c 1,4,-1
 190 730 l 1,5,6
 346 741 346 741 600 668 c 1,7,-1
 600 866 l 1,8,9
 347 797 347 797 190 800 c 1,10,-1
 190 1430 l 1,11,12
 653 1445 653 1445 904 1301 c 1,13,-1
 904 1500 l 1,14,-1
 0 1499 l 1,15,-1
 0 0 l 1,0,-1
EndSplineSet
Validated: 41
EndChar

StartChar: F
Encoding: 70 70 41
Width: 1104
Flags: W
LayerCount: 2
Fore
SplineSet
0 0 m 1,0,-1
 190 0 l 1,1,-1
 190 730 l 1,2,3
 346 741 346 741 600 668 c 1,4,-1
 600 866 l 1,5,6
 347 797 347 797 190 800 c 1,7,-1
 190 1430 l 1,8,9
 653 1445 653 1445 904 1301 c 1,10,-1
 904 1500 l 1,11,-1
 0 1499 l 1,12,-1
 0 0 l 1,0,-1
EndSplineSet
Validated: 41
EndChar

StartChar: G
Encoding: 71 71 42
Width: 1200
Flags: W
LayerCount: 2
Fore
SplineSet
0 600 m 1,1,2
 4 281 4 281 257.5 101.5 c 128,-1,3
 511 -78 511 -78 1000 0 c 1,4,-1
 1000 600 l 1,5,-1
 810 600 l 1,6,-1
 810 70 l 1,7,8
 645 10 645 10 439 116.5 c 128,-1,9
 233 223 233 223 200 600 c 1,10,11
 204 1063 204 1063 484 1260.5 c 128,-1,12
 764 1458 764 1458 1000 1300 c 1,13,-1
 1000 1500 l 1,14,15
 583 1501 583 1501 291 1236.5 c 128,-1,0
 -1 972 -1 972 0 600 c 1,1,2
EndSplineSet
Validated: 41
EndChar

StartChar: H
Encoding: 72 72 43
AltUni2: 00041d.ffffffff.0 00041d.ffffffff.0 00041d.ffffffff.0 00041d.ffffffff.0
Width: 1200
Flags: W
LayerCount: 2
Fore
SplineSet
0 0 m 1,0,-1
 190 0 l 1,1,-1
 190 730 l 1,2,-1
 810 730 l 1,3,-1
 810 0 l 1,4,-1
 1000 0 l 1,5,-1
 1000 1500 l 1,6,-1
 810 1500 l 1,7,-1
 810 800 l 1,8,-1
 190 800 l 1,9,-1
 190 1500 l 1,10,-1
 0 1500 l 1,11,-1
 0 0 l 1,0,-1
EndSplineSet
Validated: 9
EndChar

StartChar: I
Encoding: 73 73 44
AltUni2: 000406.ffffffff.0 000406.ffffffff.0 000406.ffffffff.0 000406.ffffffff.0
Width: 390
Flags: W
LayerCount: 2
Fore
SplineSet
0 1500 m 1,0,-1
 190 1500 l 1,1,-1
 190 0 l 1,2,-1
 0 0 l 1,3,-1
 0 1500 l 1,0,-1
EndSplineSet
Validated: 1
EndChar

StartChar: J
Encoding: 74 74 45
Width: 1000
Flags: W
LayerCount: 2
Fore
SplineSet
800 1000 m 1,1,-1
 800 1500 l 1,2,-1
 50 1500 l 1,3,-1
 50 1300 l 1,4,5
 299 1434 299 1434 610 1430 c 1,6,-1
 610 900 l 1,7,8
 606 378 606 378 422.5 218 c 128,-1,9
 239 58 239 58 0 200 c 1,10,-1
 0 0 l 1,11,12
 417 0 417 0 609 249 c 128,-1,0
 801 498 801 498 800 1000 c 1,1,-1
EndSplineSet
Validated: 41
EndChar

StartChar: K
Encoding: 75 75 46
AltUni2: 00041a.ffffffff.0 00041a.ffffffff.0 00041a.ffffffff.0 00041a.ffffffff.0
Width: 1200
Flags: W
LayerCount: 2
Fore
SplineSet
0 1500 m 1,0,-1
 0 0 l 1,1,-1
 190 0 l 1,2,-1
 190 400 l 1,3,4
 188 578 188 578 356 934 c 1,5,6
 749 515 749 515 800 0 c 1,7,-1
 1000 0 l 1,8,9
 887 530 887 530 390 1001 c 1,10,11
 584 1288 584 1288 900 1300 c 1,12,-1
 900 1500 l 1,13,14
 386 1341 386 1341 190 720 c 1,15,-1
 190 1500 l 1,16,-1
 0 1500 l 1,0,-1
EndSplineSet
Validated: 41
EndChar

StartChar: L
Encoding: 76 76 47
Width: 1104
Flags: W
LayerCount: 2
Fore
SplineSet
0 1500 m 1,0,-1
 190 1500 l 1,1,-1
 190 70 l 1,2,3
 653 65 653 65 904 199 c 1,4,-1
 904 0 l 1,5,-1
 0 0 l 1,6,-1
 0 1500 l 1,0,-1
EndSplineSet
Validated: 33
EndChar

StartChar: M
Encoding: 77 77 48
AltUni2: 00041c.ffffffff.0 00041c.ffffffff.0 00041c.ffffffff.0 00041c.ffffffff.0
Width: 1700
Flags: W
LayerCount: 2
Fore
SplineSet
0 0 m 1,0,-1
 200 0 l 1,1,2
 175 248 175 248 355 1400 c 1,3,-1
 637 790 l 1,4,-1
 789 790 l 1,5,-1
 1039 1369 l 1,6,-1
 1310 0 l 1,7,-1
 1500 0 l 1,8,-1
 1200 1500 l 1,9,-1
 1010 1500 l 1,10,-1
 757 925 l 1,11,-1
 500 1500 l 1,12,-1
 300 1500 l 1,13,-1
 0 0 l 1,0,-1
EndSplineSet
Validated: 41
EndChar

StartChar: N
Encoding: 78 78 49
Width: 1200
Flags: W
LayerCount: 2
Fore
SplineSet
0 0 m 1,0,-1
 190 0 l 1,1,-1
 190 1300 l 1,2,-1
 810 0 l 1,3,-1
 1000 0 l 1,4,-1
 1000 1500 l 1,5,-1
 810 1500 l 1,6,-1
 810 200 l 1,7,-1
 190 1500 l 1,8,-1
 0 1500 l 1,9,-1
 0 0 l 1,0,-1
EndSplineSet
Validated: 9
EndChar

StartChar: O
Encoding: 79 79 50
AltUni2: 00041e.ffffffff.0 00041e.ffffffff.0 00041e.ffffffff.0 00041e.ffffffff.0
Width: 1300
Flags: W
LayerCount: 2
Fore
SplineSet
158 1275 m 128,-1,1
 -5 1042 -5 1042 -1 751 c 1,2,3
 -12 459 -12 459 152.5 227 c 128,-1,4
 317 -5 317 -5 548 0 c 1,5,6
 785 -6 785 -6 943 238 c 128,-1,7
 1101 482 1101 482 1099 751 c 1,8,9
 1100 1045 1100 1045 937 1275 c 128,-1,10
 774 1505 774 1505 548 1499 c 1,11,0
 321 1508 321 1508 158 1275 c 128,-1,1
905 751 m 1,12,13
 900 499 900 499 817.5 289.5 c 128,-1,14
 735 80 735 80 548 70 c 1,15,16
 359 81 359 81 280.5 283 c 128,-1,17
 202 485 202 485 198 751 c 0,18,19
 194 983 194 983 276.5 1199.5 c 128,-1,20
 359 1416 359 1416 548 1430 c 1,21,22
 731 1417 731 1417 818 1202.5 c 128,-1,23
 905 988 905 988 905 751 c 1,12,13
EndSplineSet
Validated: 41
EndChar

StartChar: P
Encoding: 80 80 51
AltUni2: 000420.ffffffff.0 000420.ffffffff.0 000420.ffffffff.0 000420.ffffffff.0
Width: 1199
Flags: W
LayerCount: 2
Fore
SplineSet
190 0 m 1,0,-1
 190 410 l 1,1,2
 183 510 183 510 598 653 c 128,-1,3
 1013 796 1013 796 999 1142 c 1,4,5
 951 1433 951 1433 644 1483 c 128,-1,6
 337 1533 337 1533 0 1500 c 1,7,-1
 0 0 l 1,8,-1
 190 0 l 1,0,-1
190 1411 m 1,9,10
 787 1488 787 1488 798 1120 c 1,11,12
 797 857 797 857 567 738.5 c 128,-1,13
 337 620 337 620 190 576 c 1,14,-1
 190 1411 l 1,9,10
EndSplineSet
Validated: 41
EndChar

StartChar: Q
Encoding: 81 81 52
Width: 1301
Flags: W
LayerCount: 2
Fore
SplineSet
158 1275 m 128,-1,1
 -5 1042 -5 1042 -1 751 c 1,2,3
 -12 459 -12 459 152.5 227 c 128,-1,4
 317 -5 317 -5 548 0 c 0,5,6
 778 5 778 5 883 137 c 1,7,8
 906 57 906 57 900 0 c 1,9,-1
 1100 0 l 1,10,11
 1059 159 1059 159 992 304 c 1,12,13
 1096 497 1096 497 1099 751 c 1,14,15
 1100 1045 1100 1045 937 1275 c 128,-1,16
 774 1505 774 1505 548 1499 c 1,17,0
 321 1508 321 1508 158 1275 c 128,-1,1
905 751 m 1,18,19
 913 579 913 579 888 457 c 1,20,21
 795 573 795 573 690 666 c 1,22,-1
 663 646 l 1,23,24
 779 506 779 506 851 307 c 1,25,26
 750 87 750 87 548 70 c 1,27,28
 359 81 359 81 280.5 283 c 128,-1,29
 202 485 202 485 198 751 c 0,30,31
 194 983 194 983 276.5 1199.5 c 128,-1,32
 359 1416 359 1416 548 1430 c 1,33,34
 731 1417 731 1417 818 1202.5 c 128,-1,35
 905 988 905 988 905 751 c 1,18,19
EndSplineSet
Validated: 41
EndChar

StartChar: R
Encoding: 82 82 53
Width: 1200
Flags: W
LayerCount: 2
Fore
SplineSet
908 1274 m 0,1,2
 1069 950 1069 950 656 688 c 1,3,4
 953 300 953 300 1000 0 c 1,5,-1
 800 0 l 1,6,7
 799 360 799 360 560 644 c 1,8,-1
 398 606 l 1,9,-1
 384 637 l 1,10,11
 762 769 762 769 756 1064 c 1,12,13
 773 1276 773 1276 610 1366.5 c 128,-1,14
 447 1457 447 1457 190 1414 c 1,15,-1
 190 0 l 1,16,-1
 0 0 l 1,17,-1
 0 1500 l 1,18,0
 756 1579 756 1579 908 1274 c 0,1,2
EndSplineSet
Validated: 33
EndChar

StartChar: S
Encoding: 83 83 54
Width: 1200
Flags: W
LayerCount: 2
Fore
SplineSet
850 1500 m 1,0,-1
 850 1300 l 1,1,2
 264 1542 264 1542 200 1178 c 1,3,4
 196 938 196 938 578.5 859.5 c 128,-1,5
 961 781 961 781 1000 435 c 1,6,7
 986 105 986 105 688.5 25.5 c 128,-1,8
 391 -54 391 -54 0 0 c 1,9,-1
 0 200 l 1,10,11
 760 -103 760 -103 800 410 c 1,12,13
 815 725 815 725 407.5 796.5 c 128,-1,14
 0 868 0 868 0 1131 c 0,15,16
 0 1355 0 1355 198 1446 c 128,-1,17
 396 1537 396 1537 850 1500 c 1,0,-1
EndSplineSet
Validated: 33
EndChar

StartChar: T
Encoding: 84 84 55
AltUni2: 000422.ffffffff.0 000422.ffffffff.0 000422.ffffffff.0 000422.ffffffff.0
Width: 1250
Flags: W
LayerCount: 2
Fore
SplineSet
430 0 m 1,0,-1
 620 0 l 1,1,-1
 620 1430 l 1,2,3
 848 1438 848 1438 1050 1300 c 1,4,-1
 1050 1500 l 1,5,-1
 0 1500 l 1,6,-1
 0 1300 l 1,7,8
 187 1431 187 1431 430 1430 c 1,9,-1
 430 0 l 1,0,-1
EndSplineSet
Validated: 41
EndChar

StartChar: U
Encoding: 85 85 56
Width: 1199
Flags: W
LayerCount: 2
Fore
SplineSet
3 489 m 1,1,2
 50 -145 50 -145 1000 0 c 1,3,-1
 1000 1500 l 1,4,-1
 810 1500 l 1,5,-1
 810 60 l 1,6,7
 286 -18 286 -18 210 496 c 1,8,9
 161 986 161 986 433 1475 c 1,10,-1
 377 1498 l 1,11,0
 -18 1015 -18 1015 3 489 c 1,1,2
EndSplineSet
Validated: 41
EndChar

StartChar: V
Encoding: 86 86 57
Width: 1200
Flags: W
LayerCount: 2
Fore
SplineSet
577 0 m 1,0,-1
 1000 1500 l 1,1,-1
 810 1500 l 1,2,-1
 454 193 l 1,3,-1
 217 1000 l 1,4,5
 139 1326 139 1326 210 1500 c 1,6,-1
 0 1500 l 1,7,-1
 422 0 l 1,8,-1
 577 0 l 1,0,-1
EndSplineSet
Validated: 41
EndChar

StartChar: W
Encoding: 87 87 58
Width: 1700
Flags: W
LayerCount: 2
Fore
SplineSet
0 1500 m 1,0,-1
 200 1500 l 1,1,2
 175 1252 175 1252 355 100 c 1,3,-1
 637 710 l 1,4,-1
 789 710 l 1,5,-1
 1039 131 l 1,6,-1
 1310 1500 l 1,7,-1
 1500 1500 l 1,8,-1
 1200 0 l 1,9,-1
 1010 0 l 1,10,-1
 757 575 l 1,11,-1
 500 0 l 1,12,-1
 300 0 l 1,13,-1
 0 1500 l 1,0,-1
EndSplineSet
Validated: 33
EndChar

StartChar: X
Encoding: 88 88 59
AltUni2: 000425.ffffffff.0 000425.ffffffff.0 000425.ffffffff.0 000425.ffffffff.0
Width: 1211
Flags: W
LayerCount: 2
Fore
SplineSet
587 708 m 1,0,-1
 1000 0 l 1,1,-1
 800 0 l 1,2,3
 820 189 820 189 530 635 c 1,4,-1
 200 0 l 1,5,-1
 0 0 l 1,6,-1
 432 795 l 1,7,-1
 0 1500 l 1,8,-1
 208 1500 l 1,9,10
 162 1308 162 1308 487 881 c 1,11,-1
 800 1500 l 1,12,-1
 1011 1500 l 1,13,-1
 587 708 l 1,0,-1
EndSplineSet
Validated: 33
EndChar

StartChar: Y
Encoding: 89 89 60
Width: 1200
Flags: W
LayerCount: 2
Fore
SplineSet
595 690 m 1,0,-1
 1000 1500 l 1,1,-1
 800 1500 l 1,2,-1
 449 817 l 1,3,4
 157 1281 157 1281 200 1500 c 1,5,-1
 0 1500 l 1,6,-1
 405 690 l 1,7,-1
 405 0 l 1,8,-1
 595 0 l 1,9,-1
 595 690 l 1,0,-1
EndSplineSet
Validated: 41
EndChar

StartChar: Z
Encoding: 90 90 61
Width: 1200
Flags: W
LayerCount: 2
Fore
SplineSet
50 1500 m 1,0,-1
 50 1300 l 1,1,2
 226 1443 226 1443 746 1430 c 1,3,-1
 0 0 l 1,4,-1
 1000 -2 l 1,5,-1
 1000 200 l 1,6,7
 778 67 778 67 246 70 c 1,8,-1
 1000 1500 l 1,9,-1
 50 1500 l 1,0,-1
EndSplineSet
Validated: 41
EndChar

StartChar: a
Encoding: 97 97 62
AltUni2: 000430.ffffffff.0 000430.ffffffff.0 000430.ffffffff.0 000430.ffffffff.0
Width: 1001
Flags: W
LayerCount: 2
Fore
SplineSet
141 838 m 1,1,-1
 179 801 l 1,2,3
 306 943 306 943 441 930.5 c 128,-1,4
 576 918 576 918 600.5 799 c 128,-1,5
 625 680 625 680 538.5 629 c 128,-1,6
 452 578 452 578 228.5 513.5 c 128,-1,7
 5 449 5 449 0 251 c 1,8,9
 27 -16 27 -16 289.5 -16 c 128,-1,10
 552 -16 552 -16 800 0 c 1,11,-1
 800 490 l 1,12,13
 820 1012 820 1012 452 1001 c 1,14,0
 251 984 251 984 141 838 c 1,1,-1
600 62 m 1,15,16
 204 -38 204 -38 200 256 c 1,17,18
 201 409 201 409 348.5 465.5 c 128,-1,19
 496 522 496 522 600 576 c 1,20,-1
 600 62 l 1,15,16
EndSplineSet
Validated: 41
EndChar

StartChar: b
Encoding: 98 98 63
Width: 999
Flags: W
LayerCount: 2
Fore
SplineSet
190 1500 m 1,0,-1
 190 1000 l 1,1,2
 802 763 802 763 799 328 c 1,3,4
 783 108 783 108 582.5 32.5 c 128,-1,5
 382 -43 382 -43 0 0 c 1,6,-1
 0 1500 l 1,7,-1
 190 1500 l 1,0,-1
190 75 m 1,8,9
 558 -2 558 -2 598 316 c 1,10,11
 632 746 632 746 190 910 c 1,12,-1
 190 75 l 1,8,9
EndSplineSet
Validated: 33
EndChar

StartChar: c
Encoding: 99 99 64
AltUni2: 000441.ffffffff.0 000441.ffffffff.0 000441.ffffffff.0 000441.ffffffff.0
Width: 1000
Flags: W
LayerCount: 2
Fore
SplineSet
0 424 m 0,1,2
 0 214 0 214 184 78 c 128,-1,3
 368 -58 368 -58 800 0 c 1,4,-1
 800 150 l 1,5,6
 600 20 600 20 406.5 73.5 c 128,-1,7
 213 127 213 127 200 420 c 1,8,9
 194 673 194 673 374 823 c 128,-1,10
 554 973 554 973 800 850 c 1,11,-1
 800 1000 l 1,12,13
 418 1000 418 1000 209 832.5 c 128,-1,0
 0 665 0 665 0 424 c 0,1,2
EndSplineSet
Validated: 41
EndChar

StartChar: d
Encoding: 100 100 65
Width: 999
Flags: W
LayerCount: 2
Fore
SplineSet
608 1500 m 1,0,-1
 608 1000 l 1,1,2
 -4 763 -4 763 -1 328 c 1,3,4
 15 108 15 108 215.5 32.5 c 128,-1,5
 416 -43 416 -43 798 0 c 1,6,-1
 798 1500 l 1,7,-1
 608 1500 l 1,0,-1
608 75 m 1,8,9
 240 -2 240 -2 200 316 c 1,10,11
 166 746 166 746 608 910 c 1,12,-1
 608 75 l 1,8,9
EndSplineSet
Validated: 41
EndChar

StartChar: e
Encoding: 101 101 66
AltUni2: 000435.ffffffff.0 000435.ffffffff.0 000435.ffffffff.0 000435.ffffffff.0
Width: 1002
Flags: W
LayerCount: 2
Fore
SplineSet
141.5 850 m 128,-1,1
 5 716 5 716 0 474 c 1,2,3
 22 245 22 245 130.5 131.5 c 128,-1,4
 239 18 239 18 405 1 c 1,5,6
 633 -6 633 -6 802 167 c 1,7,-1
 767 214 l 1,8,9
 577 45 577 45 447.5 79.5 c 128,-1,10
 318 114 318 114 249 258 c 1,11,12
 552 375 552 375 721 548 c 1,13,14
 842 710 842 710 746.5 858 c 128,-1,15
 651 1006 651 1006 438 990 c 1,16,0
 278 984 278 984 141.5 850 c 128,-1,1
581 851.5 m 128,-1,18
 634 770 634 770 605 670 c 0,19,20
 561 516 561 516 431.5 445.5 c 128,-1,21
 302 375 302 375 217 347 c 1,22,23
 168 540 168 540 224 704.5 c 128,-1,24
 280 869 280 869 396 908 c 1,25,17
 528 933 528 933 581 851.5 c 128,-1,18
EndSplineSet
Validated: 41
EndChar

StartChar: f
Encoding: 102 102 67
Width: 790
Flags: HW
LayerCount: 2
Fore
SplineSet
419.5 1276.5 m 128,-1,1
 450 1385 450 1385 590 1500 c 1,2,-1
 540 1500 l 1,3,4
 200 1358 200 1358 200 1002 c 1,5,-1
 0 1002 l 1,6,-1
 0 802 l 1,7,8
 50 902 50 902 200 932 c 1,9,-1
 200 0 l 1,10,-1
 390 0 l 1,11,-1
 390 932 l 1,12,13
 540 912 540 912 590 802 c 1,14,-1
 590 1002 l 1,15,-1
 390 1002 l 1,16,0
 389 1168 389 1168 419.5 1276.5 c 128,-1,1
EndSplineSet
EndChar

StartChar: g
Encoding: 103 103 68
AltUni2: 000434.ffffffff.0 000434.ffffffff.0 000434.ffffffff.0 000434.ffffffff.0
Width: 998
Flags: W
LayerCount: 2
Fore
SplineSet
408 -428 m 1,0,-1
 391 -400 l 1,1,2
 568 -252 568 -252 588 -2 c 1,3,4
 53 -26 53 -26 5 344 c 1,5,6
 -19 594 -19 594 184 800.5 c 128,-1,7
 387 1007 387 1007 800 1000 c 1,8,-1
 800 501 l 1,9,10
 797 -243 797 -243 408 -428 c 1,0,-1
199 386 m 1,12,13
 202 198 202 198 299.5 123.5 c 128,-1,14
 397 49 397 49 598 56 c 1,15,16
 638 322 638 322 608 932 c 1,17,18
 438 911 438 911 314 759.5 c 128,-1,11
 190 608 190 608 199 386 c 1,12,13
EndSplineSet
Validated: 33
EndChar

StartChar: h
Encoding: 104 104 69
Width: 1000
Flags: W
LayerCount: 2
Fore
SplineSet
190 907 m 1,1,-1
 190 1500 l 1,2,-1
 0 1500 l 1,3,-1
 0 0 l 1,4,-1
 190 0 l 1,5,-1
 190 836 l 1,6,7
 300 898 300 898 450 909 c 1,8,9
 612 895 612 895 610 626 c 1,10,-1
 610 0 l 1,11,-1
 800 0 l 1,12,-1
 800 655 l 1,13,14
 776 986 776 986 446 998 c 1,15,0
 320 984 320 984 190 907 c 1,1,-1
EndSplineSet
Validated: 41
EndChar

StartChar: i
Encoding: 105 105 70
AltUni2: 000456.ffffffff.0 000456.ffffffff.0 000456.ffffffff.0 000456.ffffffff.0
Width: 390
Flags: W
LayerCount: 2
Fore
SplineSet
0 0 m 1,0,-1
 190 0 l 1,1,-1
 190 1000 l 1,2,-1
 0 1000 l 1,3,-1
 0 0 l 1,0,-1
0 1166 m 0,4,5
 0 1204 0 1204 29 1232 c 128,-1,6
 58 1260 58 1260 99 1260 c 0,7,8
 137 1260 137 1260 163.5 1233.5 c 128,-1,9
 190 1207 190 1207 190 1166 c 0,10,11
 190 1126 190 1126 163 1098 c 128,-1,12
 136 1070 136 1070 95 1070 c 0,13,14
 56 1070 56 1070 28 1098 c 128,-1,15
 0 1126 0 1126 0 1166 c 0,4,5
EndSplineSet
Validated: 9
EndChar

StartChar: j
Encoding: 106 106 71
Width: 389
Flags: W
LayerCount: 2
Fore
SplineSet
-234 -419 m 1,1,-1
 -202 -438 l 1,2,3
 179 -147 179 -147 190 514 c 1,4,-1
 190 1000 l 1,5,-1
 0 1000 l 1,6,7
 15 236 15 236 -27 62 c 1,8,0
 -83 -235 -83 -235 -234 -419 c 1,1,-1
-1 1166 m 0,9,10
 -1 1204 -1 1204 28 1232 c 128,-1,11
 57 1260 57 1260 98 1260 c 0,12,13
 136 1260 136 1260 162.5 1233.5 c 128,-1,14
 189 1207 189 1207 189 1166 c 0,15,16
 189 1126 189 1126 162 1098 c 128,-1,17
 135 1070 135 1070 94 1070 c 0,18,19
 55 1070 55 1070 27 1098 c 128,-1,20
 -1 1126 -1 1126 -1 1166 c 0,9,10
EndSplineSet
Validated: 41
EndChar

StartChar: k
Encoding: 107 107 72
AltUni2: 00043a.ffffffff.0 00043a.ffffffff.0 00043a.ffffffff.0 00043a.ffffffff.0
Width: 1000
Flags: W
LayerCount: 2
Fore
SplineSet
0 1501 m 1,0,-1
 0 0 l 1,1,-1
 190 0 l 1,2,-1
 190 484 l 1,3,4
 233 601 233 601 324 679 c 1,5,6
 603 418 603 418 600 0 c 1,7,-1
 800 0 l 1,8,9
 712 430 712 430 365 708 c 1,10,11
 581 837 581 837 750 800 c 1,12,-1
 750 1000 l 1,13,14
 369 876 369 876 190 612 c 1,15,-1
 190 1502 l 1,16,-1
 0 1501 l 1,0,-1
EndSplineSet
Validated: 41
EndChar

StartChar: l
Encoding: 108 108 73
Width: 390
Flags: W
LayerCount: 2
Fore
SplineSet
0 1500 m 1,0,-1
 190 1500 l 1,1,-1
 190 0 l 1,2,-1
 0 0 l 1,3,-1
 0 1500 l 1,0,-1
EndSplineSet
Validated: 1
EndChar

StartChar: m
Encoding: 109 109 74
AltUni2: 000442.ffffffff.0 000442.ffffffff.0 000442.ffffffff.0 000442.ffffffff.0
Width: 1650
Flags: W
LayerCount: 2
Fore
SplineSet
833 906 m 1,1,-1
 762 875 l 1,2,3
 618 1021 618 1021 446 998 c 1,4,5
 276 965 276 965 190 905 c 1,6,-1
 190 1000 l 1,7,-1
 0 1000 l 1,8,-1
 0 0 l 1,9,-1
 190 0 l 1,10,-1
 190 836 l 1,11,12
 300 898 300 898 450 909 c 1,13,14
 650 903 650 903 640 626 c 1,15,-1
 640 0 l 1,16,-1
 830 0 l 1,17,-1
 830 608 l 1,18,19
 834 762 834 762 800 818 c 1,20,21
 948 898 948 898 1098 909 c 1,22,23
 1270 904 1270 904 1260 626 c 1,24,-1
 1260 0 l 1,25,-1
 1450 0 l 1,26,-1
 1450 655 l 1,27,28
 1424 986 1424 986 1094 998 c 1,29,0
 924 965 924 965 833 906 c 1,1,-1
EndSplineSet
Validated: 41
EndChar

StartChar: n
Encoding: 110 110 75
AltUni2: 00043f.ffffffff.0 00043f.ffffffff.0 00043f.ffffffff.0 00043f.ffffffff.0
Width: 1000
Flags: W
LayerCount: 2
Fore
SplineSet
190 907 m 1,1,-1
 190 1000 l 1,2,-1
 0 1000 l 1,3,-1
 0 0 l 1,4,-1
 190 0 l 1,5,-1
 190 836 l 1,6,7
 300 898 300 898 450 909 c 1,8,9
 612 905 612 905 610 626 c 1,10,-1
 610 0 l 1,11,-1
 800 0 l 1,12,-1
 800 655 l 1,13,14
 786 986 786 986 446 998 c 1,15,0
 320 984 320 984 190 907 c 1,1,-1
EndSplineSet
Validated: 41
EndChar

StartChar: o
Encoding: 111 111 76
AltUni2: 00043e.ffffffff.0 00043e.ffffffff.0 00043e.ffffffff.0 00043e.ffffffff.0
Width: 1100
Flags: W
LayerCount: 2
Fore
SplineSet
139 850.5 m 128,-1,1
 -2 695 -2 695 1 530 c 1,2,3
 -8 306 -8 306 138.5 148 c 128,-1,4
 285 -10 285 -10 448 0 c 1,5,6
 668 -9 668 -9 781 146 c 128,-1,7
 894 301 894 301 900 506 c 1,8,9
 898 735 898 735 758 869.5 c 128,-1,10
 618 1004 618 1004 456 1000 c 1,11,0
 280 1006 280 1006 139 850.5 c 128,-1,1
701 516 m 0,12,13
 701 377 701 377 665.5 234 c 128,-1,14
 630 91 630 91 453 70 c 1,15,16
 324 75 324 75 263.5 203.5 c 128,-1,17
 203 332 203 332 201 515 c 1,18,19
 208 751 208 751 284.5 846.5 c 128,-1,20
 361 942 361 942 450 929 c 1,21,22
 587 947 587 947 644 798 c 128,-1,23
 701 649 701 649 701 516 c 0,12,13
EndSplineSet
Validated: 41
EndChar

StartChar: p
Encoding: 112 112 77
AltUni2: 000440.ffffffff.0 000440.ffffffff.0 000440.ffffffff.0 000440.ffffffff.0
Width: 998
Flags: W
LayerCount: 2
Fore
SplineSet
0 -435 m 1,0,-1
 190 -435 l 1,1,-1
 190 0 l 1,2,3
 765 -41 765 -41 797 337 c 1,4,5
 816 599 816 599 596 808.5 c 128,-1,6
 376 1018 376 1018 0 1000 c 1,7,-1
 0 -435 l 1,0,-1
597 395 m 1,9,10
 594 228 594 228 508 140.5 c 128,-1,11
 422 53 422 53 190 70 c 1,12,-1
 190 930 l 1,13,14
 399 879 399 879 498.5 741.5 c 128,-1,8
 598 604 598 604 597 395 c 1,9,10
EndSplineSet
Validated: 41
EndChar

StartChar: q
Encoding: 113 113 78
Width: 998
Flags: W
LayerCount: 2
Fore
SplineSet
798 -435 m 1,0,-1
 608 -435 l 1,1,-1
 608 0 l 1,2,3
 33 -41 33 -41 1 337 c 1,4,5
 -18 599 -18 599 202 808.5 c 128,-1,6
 422 1018 422 1018 798 1000 c 1,7,-1
 798 -435 l 1,0,-1
201 395 m 1,9,10
 204 228 204 228 290 140.5 c 128,-1,11
 376 53 376 53 608 70 c 1,12,-1
 608 930 l 1,13,14
 399 879 399 879 299.5 741.5 c 128,-1,8
 200 604 200 604 201 395 c 1,9,10
EndSplineSet
Validated: 33
EndChar

StartChar: r
Encoding: 114 114 79
Width: 900
Flags: W
LayerCount: 2
Fore
SplineSet
0 1000 m 1,0,-1
 0 0 l 1,1,-1
 190 0 l 1,2,-1
 190 504 l 1,3,4
 355 795 355 795 700 802 c 1,5,-1
 700 1002 l 1,6,7
 369 876 369 876 190 622 c 1,8,-1
 190 1000 l 1,9,-1
 0 1000 l 1,0,-1
EndSplineSet
Validated: 9
EndChar

StartChar: s
Encoding: 115 115 80
Width: 951
Flags: W
LayerCount: 2
Fore
SplineSet
598 1000 m 1,0,-1
 598 800 l 1,1,2
 432 920 432 920 326.5 905 c 128,-1,3
 221 890 221 890 192 780 c 1,4,5
 202 611 202 611 473.5 543 c 128,-1,6
 745 475 745 475 749 267 c 1,7,8
 739 64 739 64 505.5 3.5 c 128,-1,9
 272 -57 272 -57 -2 0 c 1,10,-1
 -2 200 l 1,11,12
 243 46 243 46 393 74.5 c 128,-1,13
 543 103 543 103 550 250 c 1,14,15
 550 461 550 461 283 515.5 c 128,-1,16
 16 570 16 570 4 748 c 1,17,18
 4 897 4 897 141 960 c 128,-1,19
 278 1023 278 1023 598 1000 c 1,0,-1
EndSplineSet
Validated: 33
EndChar

StartChar: t
Encoding: 116 116 81
Width: 789
Flags: W
LayerCount: 2
Fore
SplineSet
624 -419 m 5,1,-1
 592 -438 l 5,2,3
 211 -147 211 -147 200 514 c 5,4,-1
 200 930 l 5,5,6
 50 910 50 910 0 800 c 5,7,-1
 0 1000 l 5,8,-1
 200 1000 l 5,9,-1
 200 1500 l 5,10,-1
 390 1500 l 5,11,-1
 390 1000 l 5,12,-1
 590 1000 l 5,13,-1
 590 800 l 5,14,15
 540 910 540 910 390 930 c 5,16,17
 375 236 375 236 417 62 c 5,18,0
 473 -235 473 -235 624 -419 c 5,1,-1
EndSplineSet
EndChar

StartChar: u
Encoding: 117 117 82
AltUni2: 000438.ffffffff.0 000438.ffffffff.0 000438.ffffffff.0 000438.ffffffff.0
Width: 998
Flags: W
LayerCount: 2
Fore
SplineSet
3 329 m 1,1,2
 32 -82 32 -82 800 0 c 1,3,-1
 800 1000 l 1,4,-1
 610 1000 l 1,5,-1
 610 70 l 1,6,7
 244 27 244 27 200 334 c 1,8,9
 169 665 169 665 371 969 c 1,10,-1
 317 1011 l 1,11,0
 -14 680 -14 680 3 329 c 1,1,2
EndSplineSet
Validated: 41
EndChar

StartChar: v
Encoding: 118 118 83
Width: 1000
Flags: W
LayerCount: 2
Fore
SplineSet
400 0 m 1,0,1
 0 270 0 270 0 1000 c 1,2,-1
 200 1000 l 1,3,4
 207 245 207 245 400 90 c 1,5,6
 599 241 599 241 600 1000 c 1,7,-1
 800 1000 l 1,8,9
 803 264 803 264 400 0 c 1,0,1
EndSplineSet
Validated: 33
EndChar

StartChar: w
Encoding: 119 119 84
Width: 1653
Flags: W
LayerCount: 2
Fore
SplineSet
1053 0 m 1,0,1
 756 263 756 263 727 445 c 1,2,3
 697 267 697 267 400 0 c 1,4,5
 0 270 0 270 0 1000 c 1,6,-1
 200 1000 l 1,7,8
 207 245 207 245 400 90 c 1,9,10
 629 231 629 231 630 1000 c 1,11,-1
 820 1000 l 1,12,13
 820 232 820 232 1053 90 c 1,14,15
 1252 238 1252 238 1253 1000 c 1,16,-1
 1453 1000 l 1,17,18
 1456 261 1456 261 1053 0 c 1,0,1
EndSplineSet
Validated: 33
EndChar

StartChar: x
Encoding: 120 120 85
AltUni2: 000445.ffffffff.0 000445.ffffffff.0 000445.ffffffff.0 000445.ffffffff.0
Width: 997
Flags: W
LayerCount: 2
Fore
SplineSet
400 762 m 1,1,2
 200 914 200 914 50 1000 c 1,3,-1
 50 800 l 1,4,5
 194 792 194 792 349 709 c 1,6,7
 64 379 64 379 3 0 c 1,8,-1
 200 0 l 1,9,10
 200 400 200 400 400 652 c 1,11,12
 600 400 600 400 600 0 c 1,13,-1
 800 0 l 1,14,15
 786 373 786 373 455 710 c 1,16,17
 605 789 605 789 750 800 c 1,18,-1
 750 999 l 1,19,0
 600 914 600 914 400 762 c 1,1,2
EndSplineSet
Validated: 9
EndChar

StartChar: y
Encoding: 121 121 86
AltUni2: 000443.ffffffff.0 000443.ffffffff.0 000443.ffffffff.0 000443.ffffffff.0
Width: 1010
Flags: W
LayerCount: 2
Fore
SplineSet
575 4 m 1,1,2
 537 -235 537 -235 386 -419 c 1,3,-1
 418 -428 l 1,4,5
 789 -147 789 -147 802 514 c 1,6,-1
 800 1000 l 1,7,-1
 610 1000 l 1,8,9
 629 245 629 245 583 62 c 1,10,11
 13 18 13 18 279 981 c 1,12,-1
 231 1010 l 1,13,0
 -382 12 -382 12 575 4 c 1,1,2
EndSplineSet
Validated: 41
EndChar

StartChar: z
Encoding: 122 122 87
Width: 1000
Flags: W
LayerCount: 2
Fore
SplineSet
48 1000 m 1,0,-1
 48 798 l 1,1,2
 218 940 218 940 560 930 c 1,3,-1
 0 0 l 1,4,-1
 800 0 l 1,5,-1
 800 200 l 1,6,7
 636 59 636 59 240 70 c 1,8,-1
 800 1000 l 1,9,-1
 48 1000 l 1,0,-1
EndSplineSet
Validated: 41
EndChar

StartChar: degree
Encoding: 176 176 88
Width: 755
Flags: W
LayerCount: 2
Fore
SplineSet
128 1214 m 0,0,1
 128 1329 128 1329 209.5 1410 c 128,-1,2
 291 1491 291 1491 405 1491 c 0,3,4
 521 1491 521 1491 602 1410 c 128,-1,5
 683 1329 683 1329 683 1214 c 256,6,7
 683 1099 683 1099 601.5 1017.5 c 128,-1,8
 520 936 520 936 405 936 c 0,9,10
 291 936 291 936 209.5 1017 c 128,-1,11
 128 1098 128 1098 128 1214 c 0,0,1
237 1214 m 256,12,13
 237 1144 237 1144 286.5 1094.5 c 128,-1,14
 336 1045 336 1045 406 1045 c 0,15,16
 475 1045 475 1045 524.5 1094.5 c 128,-1,17
 574 1144 574 1144 574 1214 c 256,18,19
 574 1284 574 1284 524.5 1333.5 c 128,-1,20
 475 1383 475 1383 406 1383 c 0,21,22
 336 1383 336 1383 286.5 1333.5 c 128,-1,23
 237 1284 237 1284 237 1214 c 256,12,13
EndSplineSet
Validated: 1
EndChar

StartChar: cent
Encoding: 162 162 89
Width: 1127
Flags: W
LayerCount: 2
Fore
SplineSet
744 894 m 1,0,-1
 522 128 l 1,1,2
 555 119 555 119 583 119 c 0,3,4
 687 119 687 119 762.5 190 c 128,-1,5
 838 261 838 261 855 389 c 1,6,-1
 1034 369 l 1,7,8
 1001 184 1001 184 877.5 78 c 128,-1,9
 754 -28 754 -28 586 -28 c 0,10,11
 537 -28 537 -28 483 -14 c 1,12,-1
 365 -409 l 1,13,-1
 253 -377 l 1,14,-1
 368 21 l 1,15,16
 253 76 253 76 180 204.5 c 128,-1,17
 107 333 107 333 107 526 c 0,18,19
 107 704 107 704 165.5 831.5 c 128,-1,20
 224 959 224 959 340.5 1023 c 128,-1,21
 457 1087 457 1087 578 1087 c 0,22,23
 614 1087 614 1087 678 1079 c 1,24,-1
 791 1466 l 1,25,-1
 901 1434 l 1,26,-1
 789 1047 l 1,27,28
 888 1004 888 1004 941 931.5 c 128,-1,29
 994 859 994 859 1015 750 c 1,30,-1
 840 723 l 1,31,32
 814 835 814 835 744 894 c 1,0,-1
638 940 m 1,33,34
 606 943 606 943 588 943 c 0,35,36
 506 943 506 943 434.5 897.5 c 128,-1,37
 363 852 363 852 327.5 756.5 c 128,-1,38
 292 661 292 661 292 535 c 0,39,40
 292 403 292 403 324 312 c 128,-1,41
 356 221 356 221 415 177 c 1,42,-1
 638 940 l 1,33,34
EndSplineSet
Validated: 1
EndChar

StartChar: sterling
Encoding: 163 163 90
Width: 1255
Flags: W
LayerCount: 2
Fore
SplineSet
396 809 m 1,0,-1
 711 809 l 1,1,-1
 711 661 l 1,2,-1
 427 661 l 1,3,4
 446 617 446 617 446 573 c 0,5,6
 446 486 446 486 404.5 389 c 128,-1,7
 363 292 363 292 268 191 c 1,8,9
 347 213 347 213 412 213 c 0,10,11
 495 213 495 213 599 188 c 0,12,13
 771 147 771 147 832 147 c 0,14,15
 906 147 906 147 1024 203 c 1,16,-1
 1082 38 l 1,17,18
 990 -1 990 -1 939.5 -13 c 128,-1,19
 889 -25 889 -25 839 -25 c 0,20,21
 797 -25 797 -25 754 -17 c 0,22,23
 727 -12 727 -12 624.5 19.5 c 128,-1,24
 522 51 522 51 492 57 c 0,25,26
 445 65 445 65 398 65 c 0,27,28
 326 65 326 65 244.5 40 c 128,-1,29
 163 15 163 15 96 -28 c 1,30,-1
 27 145 l 1,31,32
 123 198 123 198 190 296.5 c 128,-1,33
 257 395 257 395 257 537 c 0,34,35
 257 598 257 598 240 661 c 1,36,-1
 44 661 l 1,37,-1
 44 809 l 1,38,-1
 198 809 l 1,39,40
 165 921 165 921 156 972.5 c 128,-1,41
 147 1024 147 1024 147 1073 c 0,42,43
 147 1281 147 1281 301 1398 c 0,44,45
 425 1491 425 1491 601 1491 c 0,46,47
 782 1491 782 1491 899.5 1391.5 c 128,-1,48
 1017 1292 1017 1292 1044 1112 c 1,49,-1
 865 1085 l 1,50,51
 850 1205 850 1205 775.5 1274 c 128,-1,52
 701 1343 701 1343 597 1343 c 0,53,54
 486 1343 486 1343 412.5 1271.5 c 128,-1,55
 339 1200 339 1200 339 1099 c 0,56,57
 339 988 339 988 396 809 c 1,0,-1
EndSplineSet
Validated: 1
EndChar

StartChar: section
Encoding: 167 167 91
Width: 1164
Flags: W
LayerCount: 2
Fore
SplineSet
143 -70 m 1,0,-1
 324 -44 l 1,1,2
 352 -174 352 -174 413 -226.5 c 128,-1,3
 474 -279 474 -279 579 -279 c 0,4,5
 681 -279 681 -279 738.5 -227 c 128,-1,6
 796 -175 796 -175 796 -105 c 0,7,8
 796 -54 796 -54 760 -11 c 0,9,10
 698 64 698 64 420 234 c 0,11,12
 272 325 272 325 213.5 376.5 c 128,-1,13
 155 428 155 428 118 498 c 128,-1,14
 81 568 81 568 81 644 c 0,15,16
 81 740 81 740 141 818 c 128,-1,17
 201 896 201 896 306 927 c 1,18,19
 235 995 235 995 206 1052.5 c 128,-1,20
 177 1110 177 1110 177 1175 c 0,21,22
 177 1303 177 1303 277 1397 c 128,-1,23
 377 1491 377 1491 542 1491 c 0,24,25
 729 1491 729 1491 834 1402 c 128,-1,26
 939 1313 939 1313 960 1144 c 1,27,-1
 773 1125 l 1,28,29
 752 1247 752 1247 699.5 1295 c 128,-1,30
 647 1343 647 1343 558 1343 c 0,31,32
 466 1343 466 1343 409.5 1293.5 c 128,-1,33
 353 1244 353 1244 353 1184 c 0,34,35
 353 1132 353 1132 389 1088 c 0,36,37
 445 1020 445 1020 695 868 c 0,38,39
 852 772 852 772 907 727 c 1,40,41
 978 667 978 667 1011.5 603 c 128,-1,42
 1045 539 1045 539 1045 464 c 0,43,44
 1045 351 1045 351 972 271 c 0,45,46
 930 225 930 225 818 178 c 1,47,48
 898 117 898 117 937.5 47 c 128,-1,49
 977 -23 977 -23 977 -103 c 0,50,51
 977 -191 977 -191 927 -269.5 c 128,-1,52
 877 -348 877 -348 783 -389.5 c 128,-1,53
 689 -431 689 -431 580 -431 c 0,54,55
 389 -431 389 -431 277 -335.5 c 128,-1,56
 165 -240 165 -240 143 -70 c 1,0,-1
728 244 m 1,57,58
 802 282 802 282 838.5 332.5 c 128,-1,59
 875 383 875 383 875 431 c 0,60,61
 875 488 875 488 823 551 c 0,62,63
 770 614 770 614 598 720 c 0,64,65
 461 804 461 804 394 858 c 1,66,67
 313 812 313 812 278.5 766 c 128,-1,68
 244 720 244 720 244 664 c 0,69,70
 244 601 244 601 290 544 c 256,71,72
 336 487 336 487 497 392 c 0,73,74
 631 313 631 313 728 244 c 1,57,58
EndSplineSet
Validated: 1
EndChar

StartChar: bullet
Encoding: 8226 8226 92
Width: 717
Flags: W
LayerCount: 2
Fore
SplineSet
109 718 m 256,0,1
 109 823 109 823 183.5 897 c 128,-1,2
 258 971 258 971 362 971 c 0,3,4
 467 971 467 971 541.5 897 c 128,-1,5
 616 823 616 823 616 718 c 256,6,7
 616 613 616 613 541.5 538.5 c 128,-1,8
 467 464 467 464 362 464 c 0,9,10
 258 464 258 464 183.5 538.5 c 128,-1,11
 109 613 109 613 109 718 c 256,0,1
EndSplineSet
Validated: 1
EndChar

StartChar: paragraph
Encoding: 182 182 93
Width: 1100
Flags: W
LayerCount: 2
Fore
SplineSet
405 -407 m 1,0,-1
 405 638 l 1,1,2
 218 648 218 648 109.5 759.5 c 128,-1,3
 1 871 1 871 1 1044 c 0,4,5
 1 1237 1 1237 121.5 1351.5 c 128,-1,6
 242 1466 242 1466 474 1466 c 2,7,-1
 1107 1466 l 1,8,-1
 1107 1293 l 1,9,-1
 963 1293 l 1,10,-1
 963 -407 l 1,11,-1
 793 -407 l 1,12,-1
 793 1293 l 1,13,-1
 570 1293 l 1,14,-1
 570 -407 l 1,15,-1
 405 -407 l 1,0,-1
EndSplineSet
Validated: 1
EndChar

StartChar: periodcentered
Encoding: 183 183 94
Width: 800
Flags: W
LayerCount: 2
Fore
SplineSet
400 600 m 0,0,1
 442 600 442 600 471 571 c 128,-1,2
 500 542 500 542 500 500 c 256,3,4
 500 458 500 458 470.5 429 c 128,-1,5
 441 400 441 400 400 400 c 256,6,7
 359 400 359 400 329.5 429 c 128,-1,8
 300 458 300 458 300 500 c 256,9,10
 300 542 300 542 329.5 571 c 128,-1,11
 359 600 359 600 400 600 c 0,0,1
EndSplineSet
Validated: 1
EndChar

StartChar: registered
Encoding: 174 174 95
Width: 1709
Flags: W
LayerCount: 2
Fore
SplineSet
758 1491 m 256,0,1
 948 1491 948 1491 1129 1393.5 c 128,-1,2
 1310 1296 1310 1296 1411 1114.5 c 128,-1,3
 1512 933 1512 933 1512 736 c 0,4,5
 1512 541 1512 541 1412.5 361 c 128,-1,6
 1313 181 1313 181 1133.5 81.5 c 128,-1,7
 954 -18 954 -18 758 -18 c 256,8,9
 562 -18 562 -18 382.5 81.5 c 128,-1,10
 203 181 203 181 103 361 c 128,-1,11
 3 541 3 541 3 736 c 0,12,13
 3 933 3 933 104.5 1114.5 c 128,-1,14
 206 1296 206 1296 387 1393.5 c 128,-1,15
 568 1491 568 1491 758 1491 c 256,0,1
758 1366 m 0,16,17
 599 1366 599 1366 448.5 1284.5 c 128,-1,18
 298 1203 298 1203 213 1051.5 c 128,-1,19
 128 900 128 900 128 736 c 0,20,21
 128 573 128 573 211.5 423.5 c 128,-1,22
 295 274 295 274 445 190.5 c 128,-1,23
 595 107 595 107 758 107 c 256,24,25
 921 107 921 107 1071 190.5 c 128,-1,26
 1221 274 1221 274 1304 423.5 c 128,-1,27
 1387 573 1387 573 1387 736 c 0,28,29
 1387 900 1387 900 1302.5 1051.5 c 128,-1,30
 1218 1203 1218 1203 1067 1284.5 c 128,-1,31
 916 1366 916 1366 758 1366 c 0,16,17
427 319 m 1,32,-1
 427 1131 l 1,33,-1
 706 1131 l 2,34,35
 849 1131 849 1131 913 1108.5 c 128,-1,36
 977 1086 977 1086 1015 1030 c 128,-1,37
 1053 974 1053 974 1053 911 c 0,38,39
 1053 822 1053 822 989.5 756 c 128,-1,40
 926 690 926 690 821 682 c 1,41,42
 864 664 864 664 890 639 c 0,43,44
 939 591 939 591 1010 478 c 2,45,-1
 1109 319 l 1,46,-1
 949 319 l 1,47,-1
 877 447 l 2,48,49
 792 598 792 598 740 636 c 1,50,51
 704 664 704 664 635 664 c 2,52,-1
 558 664 l 1,53,-1
 558 319 l 1,54,-1
 427 319 l 1,32,-1
558 776 m 1,55,-1
 717 776 l 2,56,57
 831 776 831 776 872.5 810 c 128,-1,58
 914 844 914 844 914 900 c 0,59,60
 914 936 914 936 894 964.5 c 128,-1,61
 874 993 874 993 838.5 1007 c 128,-1,62
 803 1021 803 1021 707 1021 c 2,63,-1
 558 1021 l 1,64,-1
 558 776 l 1,55,-1
EndSplineSet
Validated: 1
EndChar

StartChar: copyright
Encoding: 169 169 96
Width: 1709
Flags: W
LayerCount: 2
Fore
SplineSet
758 1491 m 256,0,1
 948 1491 948 1491 1129 1393.5 c 128,-1,2
 1310 1296 1310 1296 1411 1114.5 c 128,-1,3
 1512 933 1512 933 1512 736 c 0,4,5
 1512 541 1512 541 1412.5 361 c 128,-1,6
 1313 181 1313 181 1133.5 81.5 c 128,-1,7
 954 -18 954 -18 758 -18 c 256,8,9
 562 -18 562 -18 382.5 81.5 c 128,-1,10
 203 181 203 181 103 361 c 128,-1,11
 3 541 3 541 3 736 c 0,12,13
 3 933 3 933 104.5 1114.5 c 128,-1,14
 206 1296 206 1296 387 1393.5 c 128,-1,15
 568 1491 568 1491 758 1491 c 256,0,1
758 1366 m 0,16,17
 599 1366 599 1366 448.5 1284.5 c 128,-1,18
 298 1203 298 1203 213 1051.5 c 128,-1,19
 128 900 128 900 128 736 c 0,20,21
 128 573 128 573 211.5 423.5 c 128,-1,22
 295 274 295 274 445 190.5 c 128,-1,23
 595 107 595 107 758 107 c 256,24,25
 921 107 921 107 1071 190.5 c 128,-1,26
 1221 274 1221 274 1304 423.5 c 128,-1,27
 1387 573 1387 573 1387 736 c 0,28,29
 1387 900 1387 900 1302.5 1051.5 c 128,-1,30
 1218 1203 1218 1203 1067 1284.5 c 128,-1,31
 916 1366 916 1366 758 1366 c 0,16,17
1000 614 m 1,32,-1
 1123 578 l 1,33,34
 1093 453 1093 453 995.5 378.5 c 128,-1,35
 898 304 898 304 759 304 c 0,36,37
 583 304 583 304 473 418 c 128,-1,38
 363 532 363 532 363 734 c 0,39,40
 363 866 363 866 413 963.5 c 128,-1,41
 463 1061 463 1061 555.5 1110.5 c 128,-1,42
 648 1160 648 1160 767 1160 c 0,43,44
 900 1160 900 1160 988 1096.5 c 128,-1,45
 1076 1033 1076 1033 1108 924 c 1,46,-1
 989 895 l 1,47,48
 959 969 959 969 900.5 1008.5 c 128,-1,49
 842 1048 842 1048 763 1048 c 0,50,51
 648 1048 648 1048 573.5 966 c 128,-1,52
 499 884 499 884 499 731 c 256,53,54
 499 578 499 578 569.5 499.5 c 128,-1,55
 640 421 640 421 752 421 c 0,56,57
 842 421 842 421 910 473 c 128,-1,58
 978 525 978 525 1000 614 c 1,32,-1
EndSplineSet
Validated: 1
EndChar

StartChar: trademark
Encoding: 8482 8482 97
Width: 1758
Flags: W
LayerCount: 2
Fore
SplineSet
489 651 m 1,0,-1
 489 1345 l 1,1,-1
 225 1345 l 1,2,-1
 225 1466 l 1,3,-1
 891 1466 l 1,4,-1
 891 1345 l 1,5,-1
 625 1345 l 1,6,-1
 625 651 l 1,7,-1
 489 651 l 1,0,-1
982 651 m 1,8,-1
 982 1466 l 1,9,-1
 1182 1466 l 1,10,-1
 1388 815 l 1,11,-1
 1587 1466 l 1,12,-1
 1783 1466 l 1,13,-1
 1783 651 l 1,14,-1
 1659 651 l 1,15,-1
 1659 1335 l 1,16,-1
 1449 651 l 1,17,-1
 1326 651 l 1,18,-1
 1107 1345 l 1,19,-1
 1107 651 l 1,20,-1
 982 651 l 1,8,-1
EndSplineSet
Validated: 1
EndChar

StartChar: currency
Encoding: 164 164 98
Width: 1139
Flags: W
LayerCount: 2
Fore
SplineSet
213 961 m 1,0,-1
 74 1097 l 1,1,-1
 189 1216 l 1,2,-1
 328 1077 l 1,3,4
 434 1149 434 1149 565 1149 c 0,5,6
 697 1149 697 1149 802 1077 c 1,7,-1
 941 1216 l 1,8,-1
 1057 1097 l 1,9,-1
 918 961 l 1,10,11
 989 851 989 851 989 726 c 0,12,13
 989 600 989 600 918 490 c 1,14,-1
 1057 354 l 1,15,-1
 941 235 l 1,16,-1
 802 375 l 1,17,18
 697 302 697 302 565 302 c 0,19,20
 434 302 434 302 328 375 c 1,21,-1
 189 235 l 1,22,-1
 74 354 l 1,23,-1
 213 490 l 1,24,25
 142 600 142 600 142 726 c 0,26,27
 142 851 142 851 213 961 c 1,0,-1
305 726 m 0,28,29
 305 618 305 618 381 542 c 128,-1,30
 457 466 457 466 564 466 c 256,31,32
 671 466 671 466 747 542 c 128,-1,33
 823 618 823 618 823 726 c 0,34,35
 823 833 823 833 747.5 909 c 128,-1,36
 672 985 672 985 564 985 c 0,37,38
 457 985 457 985 381 909 c 128,-1,39
 305 833 305 833 305 726 c 0,28,29
EndSplineSet
Validated: 1
EndChar

StartChar: guillemotleft
Encoding: 171 171 99
Width: 1057
Flags: W
LayerCount: 2
Fore
SplineSet
340 528 m 1,0,-1
 599 72 l 1,1,-1
 453 72 l 1,2,-1
 134 528 l 1,3,-1
 453 984 l 1,4,-1
 601 984 l 1,5,-1
 340 528 l 1,0,-1
727 528 m 1,6,-1
 991 72 l 1,7,-1
 839 72 l 1,8,-1
 526 528 l 1,9,-1
 839 984 l 1,10,-1
 991 984 l 1,11,-1
 727 528 l 1,6,-1
EndSplineSet
Validated: 1
EndChar

StartChar: guillemotright
Encoding: 187 187 100
Width: 1057
Flags: W
LayerCount: 2
Fore
SplineSet
791 528 m 1,0,-1
 530 984 l 1,1,-1
 678 984 l 1,2,-1
 997 528 l 1,3,-1
 678 72 l 1,4,-1
 531 72 l 1,5,-1
 791 528 l 1,0,-1
404 528 m 1,6,-1
 140 984 l 1,7,-1
 291 984 l 1,8,-1
 605 528 l 1,9,-1
 291 72 l 1,10,-1
 140 72 l 1,11,-1
 404 528 l 1,6,-1
EndSplineSet
Validated: 1
EndChar

StartChar: ellipsis
Encoding: 8230 8230 101
Width: 1400
Flags: W
LayerCount: 2
Fore
SplineSet
100 201 m 0,0,1
 142 201 142 201 171 172 c 128,-1,2
 200 143 200 143 200 101 c 256,3,4
 200 59 200 59 170.5 30 c 128,-1,5
 141 1 141 1 100 1 c 256,6,7
 59 1 59 1 29.5 30 c 128,-1,8
 0 59 0 59 0 101 c 256,9,10
 0 143 0 143 29.5 172 c 128,-1,11
 59 201 59 201 100 201 c 0,0,1
600 201 m 0,12,13
 642 201 642 201 671 172 c 128,-1,14
 700 143 700 143 700 101 c 256,15,16
 700 59 700 59 670.5 30 c 128,-1,17
 641 1 641 1 600 1 c 256,18,19
 559 1 559 1 529.5 30 c 128,-1,20
 500 59 500 59 500 101 c 256,21,22
 500 143 500 143 529.5 172 c 128,-1,23
 559 201 559 201 600 201 c 0,12,13
1100 201 m 0,24,25
 1142 201 1142 201 1171 172 c 128,-1,26
 1200 143 1200 143 1200 101 c 256,27,28
 1200 59 1200 59 1170.5 30 c 128,-1,29
 1141 1 1141 1 1100 1 c 256,30,31
 1059 1 1059 1 1029.5 30 c 128,-1,32
 1000 59 1000 59 1000 101 c 256,33,34
 1000 143 1000 143 1029.5 172 c 128,-1,35
 1059 201 1059 201 1100 201 c 0,24,25
EndSplineSet
Validated: 1
EndChar

StartChar: [
Encoding: 91 91 102
Width: 541
Flags: W
LayerCount: 2
Fore
SplineSet
0 1500 m 1,0,-1
 340 1500 l 1,1,-1
 340 1430 l 1,2,-1
 190 1430 l 1,3,-1
 190 70 l 1,4,-1
 340 70 l 1,5,-1
 340 0 l 1,6,-1
 0 0 l 1,7,-1
 0 1500 l 1,0,-1
EndSplineSet
Validated: 513
EndChar

StartChar: backslash
Encoding: 92 92 103
Width: 808
Flags: W
LayerCount: 2
Fore
SplineSet
0 1497 m 1,0,-1
 500 -401 l 1,1,-1
 648 -401 l 1,2,-1
 151 1497 l 1,3,-1
 0 1497 l 1,0,-1
EndSplineSet
Validated: 9
EndChar

StartChar: ]
Encoding: 93 93 104
Width: 541
Flags: W
LayerCount: 2
Fore
SplineSet
300 1500 m 1,0,-1
 -40 1500 l 1,1,-1
 -40 1430 l 1,2,-1
 110 1430 l 1,3,-1
 110 70 l 1,4,-1
 -40 70 l 1,5,-1
 -40 0 l 1,6,-1
 300 0 l 1,7,-1
 300 1500 l 1,0,-1
EndSplineSet
Validated: 521
EndChar

StartChar: u-line
Encoding: 95 95 105
Width: 794
Flags: W
LayerCount: 2
Fore
SplineSet
0 70 m 1,0,-1
 594 70 l 1,1,-1
 594 0 l 1,2,-1
 0 0 l 1,3,-1
 0 70 l 1,0,-1
EndSplineSet
Validated: 513
EndChar

StartChar: rysaczka
Encoding: 65538 -1 106
Width: 599
Flags: W
LayerCount: 2
Fore
SplineSet
350 1208 m 1,0,-1
 361 1226 l 1,1,2
 460 1150 460 1150 551.5 1149.5 c 128,-1,3
 643 1149 643 1149 735 1226 c 1,4,-1
 749 1209 l 1,5,6
 657 1095 657 1095 549 1093 c 1,7,8
 447 1095 447 1095 350 1208 c 1,0,-1
EndSplineSet
Validated: 33
EndChar

StartChar: uml
Encoding: 65539 -1 107
Width: 747
Flags: W
LayerCount: 2
Fore
SplineSet
538 1685 m 0,0,1
 538 1723 538 1723 568 1751.5 c 128,-1,2
 598 1780 598 1780 637 1780 c 256,3,4
 676 1780 676 1780 702 1753 c 128,-1,5
 728 1726 728 1726 728 1686 c 256,6,7
 728 1646 728 1646 700 1618 c 128,-1,8
 672 1590 672 1590 633 1590 c 0,9,10
 595 1590 595 1590 566.5 1618 c 128,-1,11
 538 1646 538 1646 538 1685 c 0,0,1
181 1685 m 0,12,13
 181 1723 181 1723 211 1751.5 c 128,-1,14
 241 1780 241 1780 280 1780 c 256,15,16
 319 1780 319 1780 345 1753 c 128,-1,17
 371 1726 371 1726 371 1686 c 256,18,19
 371 1646 371 1646 343 1618 c 128,-1,20
 315 1590 315 1590 276 1590 c 0,21,22
 238 1590 238 1590 209.5 1618 c 128,-1,23
 181 1646 181 1646 181 1685 c 0,12,13
EndSplineSet
Validated: 1
EndChar

StartChar: Be
Encoding: 1041 1041 108
Width: 1200
Flags: W
LayerCount: 2
Fore
SplineSet
800 1500 m 1,0,-1
 800 1300 l 1,1,2
 576 1426 576 1426 190 1430 c 1,3,-1
 190 1088 l 1,4,5
 212 972 212 972 619 830.5 c 128,-1,6
 1026 689 1026 689 999 356 c 1,7,8
 951 65 951 65 644 15 c 128,-1,9
 337 -35 337 -35 0 -2 c 1,10,-1
 0 1500 l 1,11,-1
 800 1500 l 1,0,-1
190 73 m 1,12,13
 787 -4 787 -4 798 364 c 1,14,15
 822 624 822 624 579.5 744 c 128,-1,16
 337 864 337 864 190 908 c 1,17,-1
 190 73 l 1,12,13
EndSplineSet
Validated: 33
EndChar

StartChar: be
Encoding: 1073 1073 109
Width: 1100
Flags: W
LayerCount: 2
Fore
SplineSet
114 1382 m 1,1,2
 70 1247 70 1247 389 1003 c 1,3,4
 20 779 20 779 0 418 c 1,5,6
 64 2 64 2 448 -1 c 1,7,8
 854 1 854 1 900 434 c 1,9,10
 893 585 893 585 792 730 c 128,-1,11
 691 875 691 875 585 956 c 128,-1,12
 479 1037 479 1037 367 1145.5 c 128,-1,13
 255 1254 255 1254 297 1358.5 c 128,-1,14
 339 1463 339 1463 474.5 1448.5 c 128,-1,15
 610 1434 610 1434 737 1300 c 1,16,-1
 736 1499 l 1,17,-1
 443 1499 l 1,18,0
 146 1508 146 1508 114 1382 c 1,1,2
700 387 m 1,20,21
 677 75 677 75 452 70 c 1,22,23
 221 80 221 80 200 392 c 1,24,25
 195 752 195 752 450 966 c 1,26,19
 720 716 720 716 700 387 c 1,20,21
EndSplineSet
Validated: 37
EndChar

StartChar: ve
Encoding: 1074 1074 110
Width: 997
Flags: W
LayerCount: 2
Fore
SplineSet
0 0 m 1,0,1
 805 -110 805 -110 797 361 c 1,2,3
 749 594 749 594 383 834 c 1,4,5
 593 1144 593 1144 537 1327.5 c 128,-1,6
 481 1511 481 1511 246 1503 c 1,7,8
 -1 1491 -1 1491 0 1083 c 1,9,-1
 0 0 l 1,0,1
190 1130 m 1,10,11
 192 1426 192 1426 294 1428 c 1,12,13
 373 1436 373 1436 384 1201.5 c 128,-1,14
 395 967 395 967 217 651 c 1,15,16
 214 591 214 591 346 784 c 1,17,18
 559 600 559 600 603 352 c 1,19,20
 595 95 595 95 418 65.5 c 128,-1,21
 241 36 241 36 190 68 c 1,22,-1
 190 1130 l 1,10,11
EndSplineSet
Validated: 41
EndChar

StartChar: Zhe
Encoding: 1046 1046 115
Width: 2044
Flags: W
LayerCount: 2
Fore
SplineSet
830 1500 m 1,0,-1
 830 700 l 1,1,2
 564 1494 564 1494 50 1500 c 1,3,-1
 50 1300 l 1,4,5
 450 1374 450 1374 629 1009 c 1,6,7
 100 539 100 539 6 0 c 1,8,-1
 200 0 l 1,9,10
 223 497 223 497 660 951 c 1,11,12
 830 580 830 580 830 400 c 2,13,-1
 830 0 l 1,14,-1
 1020 0 l 1,15,-1
 1020 400 l 2,16,17
 1020 580 1020 580 1184 946 c 1,18,19
 1599 515 1599 515 1650 0 c 1,20,-1
 1850 0 l 1,21,22
 1737 530 1737 530 1218 1009 c 1,23,24
 1443 1374 1443 1374 1750 1300 c 1,25,-1
 1750 1500 l 1,26,27
 1274 1493 1274 1493 1020 700 c 1,28,-1
 1020 1500 l 1,29,-1
 830 1500 l 1,0,-1
EndSplineSet
Validated: 41
EndChar

StartChar: zhe
Encoding: 1078 1078 116
Width: 1700
Flags: W
LayerCount: 2
Fore
SplineSet
655 1500 m 1,0,-1
 655 591 l 1,1,2
 365 853 365 853 50 1000 c 1,3,-1
 50 800 l 1,4,5
 233 807 233 807 403 725 c 1,6,7
 70 394 70 394 0 0 c 1,8,-1
 193 0 l 1,9,10
 195 421 195 421 458 691 c 1,11,12
 587 589 587 589 655 481 c 1,13,-1
 655 0 l 1,14,-1
 845 0 l 1,15,-1
 845 475 l 1,16,17
 901 598 901 598 1012 679 c 1,18,19
 1299 418 1299 418 1305 0 c 1,20,-1
 1500 0 l 1,21,22
 1411 430 1411 430 1054 708 c 1,23,24
 1276 837 1276 837 1450 790 c 1,25,-1
 1450 1000 l 1,26,27
 1058 876 1058 876 845 588 c 1,28,-1
 845 1500 l 1,29,-1
 655 1500 l 1,0,-1
EndSplineSet
Validated: 41
EndChar

StartChar: Ze
Encoding: 1047 1047 117
Width: 1197
Flags: W
LayerCount: 2
Fore
SplineSet
0 1500 m 1,0,-1
 0 1300 l 1,1,2
 249 1466 249 1466 636 1440 c 1,3,-1
 352 1004 l 1,4,5
 766 805 766 805 795 542 c 128,-1,6
 824 279 824 279 653.5 120 c 128,-1,7
 483 -39 483 -39 0 200 c 1,8,-1
 0 0 l 1,9,10
 549 -61 549 -61 762.5 45.5 c 128,-1,11
 976 152 976 152 997 419 c 1,12,13
 1003 710 1003 710 571 992 c 1,14,-1
 896 1500 l 1,15,-1
 0 1500 l 1,0,-1
EndSplineSet
Validated: 41
EndChar

StartChar: ze
Encoding: 1079 1079 118
Width: 1046
Flags: W
LayerCount: 2
Fore
SplineSet
48 998 m 1,0,-1
 48 798 l 1,1,2
 235 947 235 947 580 938 c 1,3,-1
 326 552 l 1,4,5
 653 376 653 376 657 132.5 c 128,-1,6
 661 -111 661 -111 567.5 -217 c 128,-1,7
 474 -323 474 -323 324.5 -306.5 c 128,-1,8
 175 -290 175 -290 34 -96 c 1,9,-1
 -4 -126 l 1,10,11
 163 -365 163 -365 382.5 -369 c 128,-1,12
 602 -373 602 -373 721.5 -250 c 128,-1,13
 841 -127 841 -127 842 40 c 1,14,15
 854 365 854 365 496 538 c 1,16,-1
 800 998 l 1,17,-1
 48 998 l 1,0,-1
EndSplineSet
Validated: 41
EndChar

StartChar: em
Encoding: 1084 1084 124
Width: 1001
Flags: W
LayerCount: 2
Fore
SplineSet
-100 -440 m 1,0,-1
 -42 -440 l 1,1,2
 141 -214 141 -214 188 185 c 1,3,4
 274 6 274 6 400 0 c 1,5,6
 567 -6 567 -6 610 195 c 1,7,-1
 610 0 l 1,8,-1
 800 0 l 1,9,-1
 800 1000 l 1,10,-1
 610 1000 l 1,11,-1
 610 500 l 1,12,13
 604 376 604 376 555 217.5 c 128,-1,14
 506 59 506 59 405 65 c 1,15,16
 318 56 318 56 251 216.5 c 128,-1,17
 184 377 184 377 190 500 c 1,18,-1
 190 1000 l 1,19,-1
 0 1000 l 1,20,21
 0 500 0 500 3.5 155 c 128,-1,22
 7 -190 7 -190 -100 -440 c 1,0,-1
EndSplineSet
Validated: 41
EndChar

StartChar: en
Encoding: 1085 1085 125
Width: 1000
Flags: W
LayerCount: 2
Fore
SplineSet
190 0 m 1,0,-1
 190 500 l 1,1,-1
 610 500 l 1,2,-1
 610 0 l 1,3,-1
 800 0 l 1,4,-1
 800 1000 l 1,5,-1
 610 1000 l 1,6,-1
 610 570 l 1,7,-1
 190 570 l 1,8,-1
 190 1000 l 1,9,-1
 0 1000 l 1,10,-1
 0 0 l 1,11,-1
 190 0 l 1,0,-1
EndSplineSet
Validated: 9
EndChar

StartChar: Pe
Encoding: 1055 1055 126
Width: 1200
Flags: W
LayerCount: 2
Fore
SplineSet
0 0 m 1,0,-1
 190 0 l 1,1,-1
 190 1430 l 1,2,-1
 810 1430 l 1,3,-1
 810 0 l 1,4,-1
 1000 0 l 1,5,-1
 1000 1500 l 1,6,-1
 0 1500 l 1,7,-1
 0 0 l 1,0,-1
EndSplineSet
Validated: 9
EndChar

StartChar: U
Encoding: 1059 1059 127
Width: 1200
Flags: W
LayerCount: 2
Fore
SplineSet
500 0 m 1,0,-1
 310 0 l 1,1,-1
 412 295 l 1,2,-1
 0 1500 l 1,3,-1
 198 1500 l 1,4,5
 146 1360 146 1360 457 416 c 1,6,-1
 810 1500 l 1,7,-1
 1000 1500 l 1,8,-1
 500 0 l 1,0,-1
EndSplineSet
Validated: 545
EndChar

StartChar: Ef
Encoding: 1060 1060 130
Width: 1627
Flags: W
LayerCount: 2
Fore
SplineSet
630 335 m 1,0,1
 239 269 239 269 202 582 c 1,2,3
 252 1017 252 1017 630 1175 c 1,4,-1
 630 335 l 1,0,1
630 1500 m 1,5,-1
 630 1255 l 1,6,7
 -10 974 -10 974 1 562 c 1,8,9
 69 213 69 213 630 255 c 1,10,-1
 630 0 l 1,11,-1
 820 0 l 1,12,-1
 820 255 l 1,13,14
 1357 200 1357 200 1426 581 c 1,15,16
 1452 967 1452 967 820 1255 c 1,17,-1
 820 1500 l 1,18,-1
 630 1500 l 1,5,-1
1226 606 m 1,20,21
 1232 257 1232 257 820 340 c 1,22,-1
 820 1175 l 1,23,19
 1217 969 1217 969 1226 606 c 1,20,21
EndSplineSet
Validated: 41
EndChar

StartChar: ef
Encoding: 1092 1092 131
Width: 1627
Flags: W
LayerCount: 2
Fore
SplineSet
630 80 m 1,0,1
 239 14 239 14 202 327 c 1,2,3
 252 762 252 762 630 920 c 1,4,-1
 630 80 l 1,0,1
630 1500 m 1,5,-1
 630 1000 l 1,6,7
 -10 719 -10 719 1 307 c 1,8,9
 69 -42 69 -42 630 0 c 1,10,-1
 630 -435 l 1,11,-1
 820 -435 l 1,12,-1
 820 0 l 1,13,14
 1357 -55 1357 -55 1426 326 c 1,15,16
 1452 712 1452 712 820 1000 c 1,17,-1
 820 1500 l 1,18,-1
 630 1500 l 1,5,-1
1226 351 m 1,20,21
 1232 2 1232 2 820 85 c 1,22,-1
 820 920 l 1,23,19
 1217 714 1217 714 1226 351 c 1,20,21
EndSplineSet
Validated: 41
EndChar

StartChar: Tse
Encoding: 1062 1062 132
Width: 1202
Flags: W
LayerCount: 2
Fore
SplineSet
3 0 m 1,0,-1
 855 0 l 1,1,2
 1009 1 1009 1 1008 -166 c 1,3,4
 1000 -399 1000 -399 742 -306 c 1,5,6
 492 -190 492 -190 192 -254 c 1,7,-1
 204 -309 l 1,8,9
 446 -272 446 -272 610.5 -343 c 128,-1,10
 775 -414 775 -414 916 -413 c 1,11,12
 1191 -384 1191 -384 1198 -168 c 1,13,14
 1178 -9 1178 -9 1000 70 c 1,15,-1
 1000 1500 l 1,16,-1
 810 1500 l 1,17,-1
 810 70 l 1,18,-1
 190 70 l 1,19,-1
 190 1500 l 1,20,-1
 0 1500 l 1,21,-1
 3 0 l 1,0,-1
EndSplineSet
Validated: 41
EndChar

StartChar: tse
Encoding: 1094 1094 133
Width: 1005
Flags: W
LayerCount: 2
Fore
SplineSet
800 69 m 1,0,-1
 800 998 l 1,1,-1
 610 998 l 1,2,-1
 610 72 l 1,3,4
 275 5 275 5 200 334 c 1,5,6
 189 744 189 744 351 989 c 1,7,-1
 307 1001 l 1,8,9
 -6 680 -6 680 0 329 c 1,10,11
 71 -73 71 -73 677 1 c 1,12,13
 803 -6 803 -6 800 -148 c 1,14,15
 806 -348 806 -348 544 -288 c 1,16,17
 294 -172 294 -172 -6 -236 c 1,18,-1
 6 -291 l 1,19,20
 248 -254 248 -254 412.5 -325 c 128,-1,21
 577 -396 577 -396 718 -395 c 1,22,23
 993 -366 993 -366 1000 -150 c 1,24,25
 980 9 980 9 800 69 c 1,0,-1
EndSplineSet
Validated: 41
EndChar

StartChar: Che
Encoding: 1063 1063 134
Width: 1200
Flags: W
LayerCount: 2
Fore
SplineSet
0 1072 m 1,0,1
 -4 495 -4 495 810 587 c 1,2,-1
 810 0 l 1,3,-1
 1000 0 l 1,4,-1
 1000 1500 l 1,5,-1
 810 1500 l 1,6,-1
 810 661 l 1,7,8
 195 563 195 563 190 1077 c 1,9,-1
 190 1500 l 1,10,-1
 0 1500 l 1,11,-1
 0 1072 l 1,0,1
EndSplineSet
Validated: 41
EndChar

StartChar: che
Encoding: 1095 1095 135
Width: 1000
Flags: W
LayerCount: 2
Fore
SplineSet
610 494 m 1,1,-1
 610 0 l 1,2,-1
 800 0 l 1,3,-1
 800 1000 l 1,4,-1
 610 1000 l 1,5,-1
 610 558 l 1,6,7
 242 361 242 361 199 643 c 1,8,9
 193 819 193 819 256 995 c 1,10,-1
 212 998 l 1,11,12
 45 918 45 918 0 695 c 1,13,0
 19 197 19 197 610 494 c 1,1,-1
EndSplineSet
Validated: 41
EndChar

StartChar: Sha
Encoding: 1064 1064 136
Width: 1700
Flags: W
LayerCount: 2
Fore
SplineSet
0 1500 m 1,0,-1
 190 1500 l 1,1,-1
 190 70 l 1,2,-1
 700 70 l 1,3,4
 700 700 700 700 655 1000 c 1,5,-1
 845 1000 l 1,6,7
 800 700 800 700 800 70 c 1,8,-1
 1310 70 l 1,9,-1
 1310 1500 l 1,10,-1
 1500 1500 l 1,11,-1
 1500 0 l 1,12,-1
 0 0 l 1,13,-1
 0 1500 l 1,0,-1
EndSplineSet
Validated: 1
EndChar

StartChar: Shcha
Encoding: 1065 1065 138
Width: 1700
Flags: W
LayerCount: 2
Fore
SplineSet
0 1500 m 1,0,-1
 190 1500 l 1,1,-1
 190 70 l 1,2,-1
 700 70 l 1,3,4
 700 700 700 700 655 1000 c 1,5,-1
 845 1000 l 1,6,7
 800 700 800 700 800 70 c 1,8,-1
 1310 70 l 1,9,-1
 1310 1500 l 1,10,-1
 1500 1500 l 1,11,-1
 1500 74 l 1,12,13
 1674 14 1674 14 1694 -145 c 1,14,15
 1687 -361 1687 -361 1412 -390 c 1,16,17
 1271 -391 1271 -391 1106.5 -320 c 128,-1,18
 942 -249 942 -249 700 -286 c 1,19,-1
 688 -231 l 1,20,21
 988 -167 988 -167 1238 -283 c 1,22,23
 1496 -376 1496 -376 1504 -143 c 1,24,25
 1503 -1 1503 -1 1381 0 c 1,26,-1
 0 0 l 1,27,-1
 0 1500 l 1,0,-1
EndSplineSet
Validated: 33
EndChar

StartChar: shcha
Encoding: 1097 1097 139
Width: 1649
Flags: W
LayerCount: 2
Fore
SplineSet
647 92 m 1,1,-1
 698 123 l 1,2,3
 832 -23 832 -23 1004 0 c 1,4,5
 1174 33 1174 33 1260 93 c 1,6,7
 1260 0 1260 0 1372.5 0.5 c 128,-1,8
 1485 1 1485 1 1486 -141 c 0,9,10
 1488 -374 1488 -374 1180 -281 c 1,11,12
 930 -165 930 -165 630 -229 c 1,13,-1
 642 -284 l 1,14,15
 884 -247 884 -247 1048.5 -318 c 128,-1,16
 1213 -389 1213 -389 1354 -388 c 1,17,18
 1629 -359 1629 -359 1636 -143 c 1,19,20
 1616 16 1616 16 1450 70 c 1,21,-1
 1450 1000 l 1,22,-1
 1260 1000 l 1,23,-1
 1260 162 l 1,24,25
 1150 100 1150 100 1000 89 c 1,26,27
 818 103 818 103 820 372 c 1,28,-1
 820 1000 l 1,29,-1
 630 1000 l 1,30,-1
 630 390 l 1,31,32
 632 246 632 246 660 180 c 1,33,34
 502 100 502 100 352 89 c 1,35,36
 190 103 190 103 190 372 c 2,37,-1
 190 1000 l 1,38,-1
 0 1000 l 1,39,-1
 0 343 l 1,40,41
 26 12 26 12 356 0 c 1,42,0
 526 33 526 33 647 92 c 1,1,-1
EndSplineSet
Validated: 41
EndChar

StartChar: Hard
Encoding: 1066 1066 140
Width: 1486
Flags: HW
LayerCount: 2
Fore
SplineSet
477 73 m 1,0,1
 1074 -4 1074 -4 1085 364 c 1,2,3
 1100 624 1100 624 862 744 c 128,-1,4
 624 864 624 864 477 908 c 1,5,-1
 477 73 l 1,0,1
477 1088 m 1,6,7
 499 972 499 972 899.5 837 c 128,-1,8
 1300 702 1300 702 1286 356 c 1,9,10
 1238 65 1238 65 931 15 c 128,-1,11
 624 -35 624 -35 287 0 c 1,12,-1
 287 1430 l 1,13,14
 111 1428 111 1428 91 1288 c 1,15,16
 88 1184 88 1184 142 1121 c 128,-1,17
 196 1058 196 1058 191 928 c 1,18,-1
 141 928 l 1,19,20
 129 1040 129 1040 14.5 1102 c 128,-1,21
 -100 1164 -100 1164 -99 1288 c 0,22,23
 -99 1387 -99 1387 12 1449.5 c 128,-1,24
 123 1512 123 1512 477 1500 c 1,25,-1
 477 1088 l 1,6,7
EndSplineSet
EndChar

StartChar: hard
Encoding: 1098 1098 141
Width: 1283
Flags: HW
LayerCount: 2
Fore
SplineSet
12 951.5 m 132,-1,1
 -99 889 -99 889 -99 800 c 4,2,3
 -100 686 -100 686 14.5 624 c 132,-1,4
 129 562 129 562 141 450 c 5,5,-1
 191 450 l 5,6,7
 196 580 196 580 142 643 c 132,-1,8
 88 706 88 706 91 800 c 5,9,10
 111 930 111 930 281 930 c 5,11,-1
 281 0 l 5,12,13
 740 -43 740 -43 909 14.5 c 132,-1,14
 1078 72 1078 72 1083 258 c 5,15,16
 1076 474 1076 474 773.5 582.5 c 132,-1,17
 471 691 471 691 471 837 c 6,18,-1
 471 1000 l 5,19,0
 123 1014 123 1014 12 951.5 c 132,-1,1
876 219 m 5,21,22
 830 -7 830 -7 471 55 c 5,23,-1
 471 658 l 5,24,25
 596 557 596 557 750.5 491 c 132,-1,20
 905 425 905 425 876 219 c 5,21,22
EndSplineSet
EndChar

StartChar: yeru
Encoding: 1099 1099 143
Width: 1255
Flags: W
LayerCount: 2
Fore
SplineSet
860 0 m 1,0,-1
 1055 0 l 1,1,-1
 1055 1000 l 1,2,-1
 860 1000 l 1,3,-1
 860 0 l 1,0,-1
0 1000 m 1,4,-1
 0 0 l 1,5,6
 449 -43 449 -43 614.5 14.5 c 128,-1,7
 780 72 780 72 785 258 c 1,8,9
 788 464 788 464 489 577.5 c 128,-1,10
 190 691 190 691 190 837 c 2,11,-1
 190 1000 l 1,12,-1
 0 1000 l 1,4,-1
591 219 m 1,14,15
 547 -7 547 -7 190 55 c 1,16,-1
 190 658 l 1,17,18
 309 557 309 557 464.5 491 c 128,-1,13
 620 425 620 425 591 219 c 1,14,15
EndSplineSet
Validated: 41
EndChar

StartChar: soft
Encoding: 1100 1100 145
Width: 1002
Flags: W
LayerCount: 2
Fore
SplineSet
0 1000 m 1,0,-1
 0 0 l 1,1,2
 459 -43 459 -43 628 14.5 c 128,-1,3
 797 72 797 72 802 258 c 1,4,5
 805 464 805 464 497.5 577.5 c 128,-1,6
 190 691 190 691 190 837 c 2,7,-1
 190 1000 l 1,8,-1
 0 1000 l 1,0,-1
595 219 m 1,10,11
 549 -7 549 -7 190 55 c 1,12,-1
 190 658 l 1,13,14
 315 557 315 557 469.5 491 c 128,-1,9
 624 425 624 425 595 219 c 1,10,11
EndSplineSet
Validated: 553
EndChar

StartChar: cyr
Encoding: 1069 1069 146
Width: 1200
Flags: W
LayerCount: 2
Fore
SplineSet
1000 900 m 1,1,2
 961 1235 961 1235 736.5 1408 c 128,-1,3
 512 1581 512 1581 50 1500 c 1,4,-1
 50 1300 l 1,5,6
 333 1522 333 1522 559 1386 c 128,-1,7
 785 1250 785 1250 800 900 c 1,8,9
 598 897 598 897 450 960 c 1,10,-1
 450 780 l 1,11,12
 596 843 596 843 800 830 c 1,13,14
 770 405 770 405 504.5 212 c 128,-1,15
 239 19 239 19 0 200 c 1,16,-1
 0 0 l 1,17,18
 453 -14 453 -14 727 257 c 128,-1,0
 1001 528 1001 528 1000 900 c 1,1,2
EndSplineSet
Validated: 553
EndChar

StartChar: cyr
Encoding: 1101 1101 147
Width: 1000
Flags: W
LayerCount: 2
Fore
SplineSet
800 576 m 0,1,2
 800 786 800 786 616 922 c 128,-1,3
 432 1058 432 1058 50 1000 c 1,4,-1
 50 800 l 1,5,6
 209 984 209 984 399 927.5 c 128,-1,7
 589 871 589 871 600 600 c 1,8,-1
 350 600 l 1,9,-1
 350 530 l 1,10,-1
 600 530 l 1,11,12
 596 263 596 263 410.5 154 c 128,-1,13
 225 45 225 45 0 200 c 1,14,-1
 0 0 l 1,15,16
 382 0 382 0 591 167.5 c 128,-1,0
 800 335 800 335 800 576 c 0,1,2
EndSplineSet
Validated: 553
EndChar

StartChar: Ju
Encoding: 1070 1070 148
Width: 1589
Flags: HW
LayerCount: 2
Fore
SplineSet
1103 1202.5 m 128,-1,1
 1021 1417 1021 1417 838 1430 c 1,2,3
 649 1416 649 1416 566.5 1199.5 c 128,-1,4
 484 983 484 983 488 751 c 0,5,6
 492 485 492 485 570.5 283 c 128,-1,7
 649 81 649 81 838 70 c 1,8,9
 1025 80 1025 80 1102.5 289.5 c 128,-1,10
 1180 499 1180 499 1185 751 c 1,11,0
 1185 988 1185 988 1103 1202.5 c 128,-1,1
838 1499 m 1,12,13
 1064 1505 1064 1505 1227 1275 c 128,-1,14
 1390 1045 1390 1045 1389 751 c 1,15,16
 1391 482 1391 482 1233 238 c 128,-1,17
 1075 -6 1075 -6 838 0 c 1,18,19
 607 -5 607 -5 442.5 227 c 128,-1,20
 278 459 278 459 280 730 c 1,21,-1
 190 730 l 1,22,-1
 190 0 l 1,23,-1
 0 0 l 1,24,-1
 0 1500 l 1,25,-1
 190 1500 l 1,26,-1
 190 800 l 1,27,-1
 280 800 l 1,28,29
 285 1042 285 1042 448 1275 c 128,-1,30
 611 1508 611 1508 838 1499 c 1,12,13
EndSplineSet
EndChar

StartChar: ju
Encoding: 1102 1102 149
Width: 1310
Flags: HW
LayerCount: 2
Fore
SplineSet
914 511 m 0,0,1
 914 357 914 357 867.5 211.5 c 128,-1,2
 821 66 821 66 710 70 c 1,3,4
 600 63 600 63 552.5 193.5 c 128,-1,5
 505 324 505 324 503 510 c 1,6,7
 500 661 500 661 561.5 801 c 128,-1,8
 623 941 623 941 708 930 c 1,9,10
 811 945 811 945 862.5 796 c 128,-1,11
 914 647 914 647 914 511 c 0,0,1
438.5 850.5 m 128,-1,13
 318 695 318 695 314 595 c 1,14,15
 297 525 297 525 246.5 532.5 c 128,-1,16
 196 540 196 540 195 599 c 1,17,-1
 195 1000 l 1,18,-1
 0 1000 l 1,19,-1
 0 0 l 1,20,-1
 195 0 l 1,21,-1
 195 476 l 1,22,23
 223 459 223 459 251 458 c 128,-1,24
 279 457 279 457 306 480 c 1,25,26
 313 306 313 306 438 148 c 128,-1,27
 563 -10 563 -10 708 0 c 1,28,29
 904 -9 904 -9 1004.5 146 c 128,-1,30
 1105 301 1105 301 1110 506 c 1,31,32
 1108 735 1108 735 983.5 869.5 c 128,-1,33
 859 1004 859 1004 715 1000 c 1,34,12
 559 1006 559 1006 438.5 850.5 c 128,-1,13
EndSplineSet
EndChar

StartChar: ja
Encoding: 1103 1103 151
Width: 1001
Flags: W
LayerCount: 2
Fore
SplineSet
47 681 m 1,1,2
 -107 380 -107 380 255 256 c 1,3,4
 175 63 175 63 -91 -193 c 1,5,-1
 -66 -217 l 1,6,7
 385 -7 385 -7 471 302 c 1,8,9
 199 287 199 287 211 536 c 1,10,11
 216 669 216 669 318.5 781 c 128,-1,12
 421 893 421 893 610 917 c 1,13,-1
 610 0 l 1,14,-1
 800 0 l 1,15,-1
 800 1000 l 1,16,0
 237 972 237 972 47 681 c 1,1,2
EndSplineSet
Validated: 41
EndChar
